<?xml version="1.0" encoding="utf-8"?>
<!-- Generator: Adobe Illustrator 24.1.0, SVG Export Plug-In . SVG Version: 6.00 Build 0)  -->
<svg version="1.1" id="Capa_1" xmlns="http://www.w3.org/2000/svg" xmlns:xlink="http://www.w3.org/1999/xlink" x="0px" y="0px"
	 viewBox="0 0 1080 1080" style="enable-background:new 0 0 1080 1080;" xml:space="preserve">
<style type="text/css">
	.st0{fill:#4AA758;}
	.st1{fill:#EFE5DE;}
	.st2{fill:none;stroke:#2E2D2C;stroke-width:1.667;stroke-miterlimit:10;}
	.st3{fill:#64B449;}
	.st4{fill:#E4B632;}
	.st5{fill:#C5222F;}
	.st6{fill:#4B9E46;}
	.st7{fill:#418045;}
	.st8{fill:#F9C315;}
	.st9{fill:#E8422E;}
	.st10{fill:#F59C2C;}
	.st11{fill:#1D95D3;}
	.st12{fill:#A11E44;}
	.st13{fill:#2BBBE0;}
	.st14{fill:#ED6B2E;}
	.st15{fill:#E6263C;}
	.st16{fill:#DD1A69;}
	.st17{fill:#18486A;}
	.st18{fill:#C6982D;}
	.st19{fill:#076A9D;}
	.st20{fill:#1D1D1B;}
	.st21{fill:#9E264C;}
	.st22{fill:#231F20;}
	.st23{fill:#FFFFFF;}
	.st24{fill:#448350;}
	.st25{fill:#5DBB5D;}
	.st26{fill:#F37139;}
	.st27{fill:#B25529;}
	.st28{fill:#E22D74;}
	.st29{fill:#25A9E1;}
	.st30{fill:#BF933D;}
	.st31{fill:#FEFEFE;}
	.st32{fill:#F04E39;}
	.st33{fill:#F8BF31;}
	.st34{fill:#C52E37;}
	.st35{fill:#1F96D3;}
	.st36{fill:#0C2D45;}
	.st37{fill:#65BCE9;}
	.st38{fill:#3D7DA2;}
	.st39{fill:#1F6EA1;}
	.st40{fill:#E6293B;}
	.st41{fill:#F89B39;}
	.st42{fill:#E0B343;}
	.st43{fill:#EE3647;}
	.st44{fill:#274E70;}
	.st45{fill:#00C0E5;}
	.st46{fill:#F9D776;}
	.st47{fill:none;stroke:#3C3C3B;stroke-width:0.402;stroke-miterlimit:10;}
	.st48{fill:#020202;}
	.st49{fill:#0E0F10;}
	.st50{fill:#222122;}
	.st51{fill:#71C6D3;}
	.st52{fill:#478087;}
	.st53{opacity:0.42;}
	.st54{clip-path:url(#SVGID_2_);fill:#71C6D3;}
	.st55{fill:#F5D13F;}
	.st56{fill:#F3982E;}
	.st57{fill:#F15753;}
	.st58{fill:#DB2E3D;}
	.st59{fill:#3B2D47;}
	.st60{fill:none;stroke:#274E70;stroke-width:6;stroke-miterlimit:10;}
	.st61{fill:none;stroke:#3C3C3B;stroke-width:0.483;stroke-miterlimit:10;}
	.st62{fill:#FAAD5C;}
	.st63{fill:#B6772F;}
	.st64{clip-path:url(#SVGID_4_);}
	.st65{clip-path:url(#SVGID_6_);fill:#1E1D1D;}
</style>
<g>
	<defs>
		<path id="SVGID_3_" d="M2708.03,314.08c13.6,7.23,24.2,3.71,31.79-10.57c4.3-8.08,5.6-14.12,3.92-18.13
			c-1.69-4.01-5.93-7.82-12.73-11.43s-13.19-4.42-19.16-2.42c-5.97,2.01-10.25,5.43-12.83,10.28c-2.43,4.58-2.82,10.42-1.14,17.53
			C2699.54,306.45,2702.93,311.36,2708.03,314.08z M2750.83,234.79c6.29,3.34,12.49,3.3,18.61-0.13c2.94-2.15,5.02-4.38,6.25-6.7
			c1.23-2.31,1.72-7.62,1.48-15.92c-0.53-8.44,0.6-15.27,3.36-20.48c2.77-5.21,16.07-11.68,39.89-19.43
			c9.96-3.24,20.16-6.91,30.58-11.02c24.47-9.63,41.78-23.99,51.93-43.09c5.85-10.99,7.98-23.78,6.41-38.34
			c-3.1-26.52-16.1-45.86-39.01-58.04c-16.2-8.61-34.74-11.14-55.63-7.59c-20.88,3.56-34.25,10.83-40.09,21.83
			c-6.46,12.15-3.69,21.42,8.33,27.81c4.19,2.23,13.27-0.37,27.25-7.78c5.25-3.14,11.84-4.75,19.75-4.81
			c7.91-0.06,15.5,1.84,22.77,5.7s12.99,10.44,17.19,19.72c4.2,9.28,4.45,17.4,0.76,24.34c-5.23,9.84-22.05,18.89-50.46,27.17
			c-8.2,1.95-17.44,4.83-27.71,8.65c-21.84,8.06-37.76,21.49-47.76,40.3c-5.69,10.71-7.67,22.18-5.94,34.42
			C2740.53,223.65,2744.54,231.44,2750.83,234.79z M2487.99,334.5c16.15,8.59,34.72,11.12,55.71,7.59
			c20.99-3.53,34.41-10.8,40.27-21.82c2.77-5.22,3.41-10.27,1.9-15.17c-1.51-4.89-4.7-8.63-9.57-11.22
			c-4.87-2.59-14.46-0.34-28.77,6.74c-14.3,7.08-28.28,7-41.92-0.26c-7.52-4-13.36-10.82-17.51-20.47
			c-4.16-9.65-4.46-17.81-0.92-24.47c5.24-9.86,22.19-18.88,50.83-27.08c6.18-1.55,15.48-4.6,27.9-9.15
			c22.25-8.25,38.23-21.51,47.94-39.78c5.86-11.02,7.83-22.61,5.91-34.79c-1.92-12.18-6.78-20.34-14.58-24.48
			c-3.34-1.78-7.42-1.99-12.24-0.65c-4.82,1.34-8.04,3.53-9.66,6.58c-1.62,3.04-2.28,8.83-1.99,17.35
			c0.29,8.52-1.03,15.54-3.96,21.05s-16.07,12.09-39.44,19.75c-9.8,2.97-19.76,6.6-29.9,10.88c-24.87,9.83-42.4,24.31-52.57,43.45
			c-6.17,11.6-8.33,24.39-6.48,38.39C2452.14,303.16,2465.15,322.35,2487.99,334.5z M2631.35,84.34c4.53,2.41,9.75,2.51,15.66,0.29
			c5.9-2.22,10.22-5.88,12.94-11c2.86-5.39,3.07-11.41,0.61-18.07c-2.46-6.66-6.09-11.27-10.91-13.83
			c-13.04-6.93-23.35-3.26-30.94,11.02c-4.44,8.35-5.71,14.5-3.81,18.45C2616.8,75.13,2622.28,79.52,2631.35,84.34z"/>
	</defs>
	<clipPath id="SVGID_2_">
		<use xlink:href="#SVGID_3_"  style="overflow:visible;"/>
	</clipPath>
	<g style="clip-path:url(#SVGID_2_);">
		<defs>
			<rect id="SVGID_5_" x="-5636.74" y="-2234.1" width="12677.04" height="7130.83"/>
		</defs>
		<clipPath id="SVGID_4_">
			<use xlink:href="#SVGID_5_"  style="overflow:visible;"/>
		</clipPath>
	</g>
</g>
<path class="st22" d="M864.52,277.95c5.02-0.27,10.1-0.27,15.1-0.89c5.53-0.69,9.9,1.49,13.92,4.75c2.56,2.07,2.74,4.88-0.02,6.62
	c-5.04,3.19-6.42,8.12-7.96,13.23c-1.81,6-3.97,11.87-5.67,17.89c-0.65,2.25-0.74,4.71-0.67,7.07c0.09,3.37,0.74,6.71,0.76,10.08
	c0.02,4.77,1.74,8.7,4.48,12.62c3.17,4.57,6.91,7.43,12.29,9.14c8.01,2.52,15.55,6.22,23.95,7.72c3.08,0.54,6.07,2.81,8.61,4.91
	c3.52,2.92,3.39,6.29-0.71,7.85c-11.82,4.44-19.09,15.37-30.31,20.59c-1.85,0.85-3.21,2.85-4.59,4.53
	c-2.99,3.64-6.8,4.77-10.95,2.74c-6.2-3.06-12.2-6.6-18.2-10.04c-0.78-0.45-1.56-1.32-1.83-2.16c-1.9-6.09-6.71-9.86-10.88-14.16
	c-7.49-7.67-10.53-17.62-13.78-27.46c-5.35-16.17-5.75-32.59-2.79-49.18c0.8-4.46,2.59-8.74,3.9-13.11
	c0.56-1.83,1.34-3.59,1.63-5.44c0.98-5.71,1.34-6.51,7.16-7.03c5.46-0.49,11.04-0.11,16.55-0.11
	C864.52,278.06,864.52,278.02,864.52,277.95 M869.02,291.62c-7.76-1.83-9.32-1.27-12.98,3.77c-3.48,4.82-4.97,10.22-5.6,16.08
	c-1.25,11.22-2.92,22.39,0.49,33.54c1.14,3.66,2.21,7.36,3.06,11.13c3.1,14.01,11.13,24.76,21.75,33.99
	c2.14,1.87,4.06,2.48,6.45,1.11c7.52-4.26,15.28-8.23,20.92-15.05c0.96-1.18,1.36-2.86,2.36-5.04c-3.61-1.34-6.67-2.59-9.79-3.59
	c-11.37-3.7-21.14-10.04-26.9-20.5c-6.47-11.73-7.83-24.53-3.3-37.63C867.44,303.83,869.49,298.14,869.02,291.62"/>
<path class="st22" d="M77.63,287.57c16.78,2.4,30.87-4.26,45.22-12.08c13.28-7.22,20.75-19.27,29.87-30.06
	c1.8-2.18,2.4-5.55,3.03-8.45c1.32-5.99,2.27-12.05,3.44-18.07c0.69-3.56,2.21-6.37,6.56-6.46c7.16-0.09,15.71,6.72,16.49,13.91
	c1.77,15.49,3.25,31.06,4.76,46.58c0.69,7.44,0.95,14.92,1.86,22.33c1.04,8.74-0.73,16.46-4.29,24.63
	c-6.34,14.7-15.36,27.09-27.28,37.5c-3.25,2.87-6.84,5.77-10.75,7.54c-15.17,6.84-30.46,13.47-45.95,19.68
	c-8.01,3.25-16.37,4.54-24.54-0.35c-4.6-2.81-7.19-6.37-8.01-12.11c-2.62-18.8-5.93-37.53-8.99-56.26
	c-1.01-6.37-2.27-12.77-2.81-19.17c-0.5-6.28,1.89-8.77,8.14-9.11C68.8,287.38,73.21,287.57,77.63,287.57 M161.52,276.66
	c-3.37,2.18-6.06,4.07-8.93,5.65c-10.75,5.87-21.13,12.61-32.45,17.03c-8.33,3.25-17.85,3.88-26.93,4.86
	c-9.27,1.01-11.23,2.74-10.44,12.08c0.09,1.36,0.38,2.71,0.57,4.07c2.02,11.73,3.94,23.5,6.06,35.2c1.45,7.82,5.74,10.09,13.44,6.97
	c9.43-3.82,18.8-7.85,28.04-12.2c3.03-1.39,5.64-3.82,8.1-6.12c11.64-10.94,20.03-24.13,25.26-39.08
	C167.44,295.96,166.94,286.56,161.52,276.66"/>
<path class="st22" d="M328.51,57.7c5.06-1.25,10.06-1.98,14.63-3.75c3.72-1.45,7.18-3.84,10.35-6.33c7.05-5.53,17.49-2.72,20.12,6
	c3.72,12.4,7.87,24.78,10.15,37.47c1.72,9.59,1.36,19.72,0.78,29.53c-0.51,9.32-2.3,18.62-3.95,27.86
	c-1.58,8.99-3.97,17.82-5.46,26.83c-0.96,5.89-3.95,6.22-8.1,4.46c-5.53-2.36-10.88-5.11-16.39-7.52
	c-5.69-2.5-11.44-4.93-17.24-7.16c-8.74-3.39-17.58-6.6-26.36-9.88c-0.45-0.16-0.87-0.38-1.32-0.62c-6.94-3.88-7.23-6.58-0.94-11.53
	c2.63-2.07,5.42-4.08,8.36-5.66c10.77-5.84,16.01-16.37,22.06-26.14c1.29-2.05,1.47-5.11,1.36-7.67
	c-0.6-14.68-1.05-29.42-8.16-42.87c-0.31-0.6-0.29-1.4-0.25-2.12C328.15,58.16,328.49,57.74,328.51,57.7 M320.61,151.41
	c2.72,1.23,4.35,2.25,6.13,2.74c9.14,2.39,17.84,5.69,26.12,10.3c6.22,3.46,7.61,2.88,9.37-4.3c1.65-6.74,2.12-13.76,3.5-20.59
	c2.7-13.25,3.79-26.61,4.17-40.12c0.33-12.04-3.57-23.22-5.69-34.77c-0.11-0.6-0.8-1.11-1.25-1.67c-1.2,0.18-2.19,0.18-3.06,0.49
	c-2.74,0.94-5.44,1.96-8.16,2.97c-6.27,2.39-5.84,2.34-5.06,8.81c1.32,10.97,2.27,22.01,2.85,33.03c0.2,3.72-0.22,8.19-2.14,11.17
	c-6.53,10.21-11.62,21.77-23.08,27.99C323.16,148.09,322.4,149.45,320.61,151.41"/>
<path class="st22" d="M823.87,139.97c7.03,1.29,14.1,2.52,21.14,3.95c1.58,0.33,3.12,1.25,4.55,2.14c4.88,3.03,4.8,5.17,0.02,8.14
	c-2.23,1.38-4.53,2.83-6.29,4.73c-7.74,8.27-15.37,16.64-22.86,25.11c-5.13,5.84-7.11,6.65-14.34,3.5
	c-8.19-3.55-16.73-6.56-24.15-11.33c-7.2-4.59-13.78-10.57-19.47-16.97c-8.72-9.72-15.79-20.68-19.23-33.57
	c-0.67-2.56-1.29-5.15-1.67-7.76c-2.07-14.1,2.74-25.09,15.32-32.18c7.11-4.01,14.27-8.01,21.77-11.22
	c3.03-1.32,7.18-1.38,10.44-0.51c6.94,1.87,8.3,5.02,5.69,11.73c-3.52,9.1-5.24,18.33-4.86,28.19c0.6,14.76,4.8,21.14,18.82,25.25
	c4.77,1.38,9.86,1.72,14.79,2.54C823.65,141.13,823.76,140.55,823.87,139.97 M824.38,152.64c-4.1-1.18-7.05-1.96-9.97-2.9
	c-5.46-1.78-11.08-3.26-16.33-5.6c-16.19-7.2-25.74-18.94-24.56-37.6c0.13-2.16,0.22-4.35,0.04-6.47c-0.16-1.56-0.87-3.05-1.43-4.86
	c-1.36,0.42-2.32,0.53-3.08,1c-10.33,6.4-13.54,15.34-11.04,27.95c3.5,17.53,13.69,31.02,26.12,43.05
	c3.01,2.92,7.11,4.88,10.97,6.71c5.4,2.54,10.28,1.18,14.32-3.19c3.9-4.24,7.85-8.45,11.69-12.78
	C822.15,156.75,822.84,155.21,824.38,152.64"/>
<path class="st22" d="M923.56,127.05c0.5-8.17,1.01-16.31,1.51-24.44c0.88-14.63,9.81-25.86,16.46-37.97
	c3.06-5.58,6.81-5.68,15.26-2.21c6.84,2.84,7.92,4.83,7.29,11.39c-0.91,10.12-1.86,20.31-2.18,30.46
	c-0.28,9.52,4.07,17.82,8.64,25.83c2.78,4.86,7.79,5.08,12.65,4.64c8.26-0.79,16.34-0.19,24.06,3.03
	c9.08,3.85,10.06,5.99,7.44,15.64c-5.93,22.14-6.34,44.28-0.19,66.51c1.17,4.26,2.24,8.58,2.81,12.96
	c1.01,7.22-2.62,10.19-9.62,8.04c-6.18-1.89-11.42-5.9-13.12-11.92c-2.43-8.67-8.89-11.92-15.77-16.02
	c-11.61-6.94-23.87-13.66-33.49-22.93c-14.54-13.97-19.74-32.89-21.07-52.79c-0.22-3.37-0.03-6.78-0.03-10.19
	C924.01,127.08,923.82,127.05,923.56,127.05 M948.32,131.88c-3.6,21.41,4.19,37.59,13.25,52.86c5.05,8.52,14.1,13.69,24.35,16.62
	c0.88-2.52,1.64-3.78,1.67-5.01c0.19-12.52,0.16-25.04,0.35-37.53c0.09-4.51-1.77-6.94-6.24-7.66c-9.68-1.55-17.63-6.69-25.01-12.77
	C954.66,136.67,952.55,135.16,948.32,131.88"/>
<path class="st22" d="M113.8,48.26c2.21-1.2,3.28-2.3,4.45-2.37c19.11-1.23,38.13-1.1,56.04,7.1c1.23,0.57,2.65,1.01,3.63,1.89
	c12.46,11.83,26.62,21.98,34.6,38.19c4.64,9.46,9.68,18.35,11.95,28.95c3.91,17.88,0.22,33.49-10.38,47.94
	c-4.01,5.46-7.7,11.1-11.86,16.4c-3.41,4.35-8.23,5.08-12.77,2.27c-5.77-3.5-11.79-7-16.49-11.73
	c-12.58-12.77-26.96-21.41-45.07-23.53c-7.6-0.88-14.35-5.36-19.9-11.86c4.23-5.33,10.91-5.52,16.43-6.28
	c24.85-3.53,32.29-36.11,20.59-52.16c-7.66-10.47-14.95-21-25.64-28.7C117.4,52.93,115.98,50.69,113.8,48.26 M187.79,165.74
	c11.32-10.85,16.43-24,14.89-38.85c-2.81-26.78-15.83-48.09-37.37-64.11c-3.53-2.62-7.66-4.32-12.58-0.57
	c1.04,2.24,1.77,4.42,2.96,6.28c4.64,7.13,9.21,14.29,14.16,21.16c3.31,4.67,4.45,9.62,4.64,15.26
	c0.44,13.84-5.05,25.07-14.03,35.04c-2.11,2.33-3.88,4.95-6.21,7.95C166,154.13,176.41,159.68,187.79,165.74"/>
<path class="st30" d="M869.02,291.62c0.47,6.51-1.58,12.2-3.55,17.82c-4.53,13.09-3.17,25.89,3.3,37.63
	c5.75,10.46,15.52,16.79,26.9,20.5c3.12,1,6.18,2.25,9.79,3.59c-1,2.19-1.41,3.86-2.36,5.04c-5.64,6.82-13.4,10.79-20.92,15.05
	c-2.39,1.36-4.3,0.76-6.45-1.11c-10.62-9.23-18.65-19.98-21.75-33.99c-0.85-3.77-1.92-7.47-3.06-11.13
	c-3.41-11.15-1.74-22.33-0.49-33.54c0.62-5.87,2.12-11.26,5.6-16.08C859.7,290.35,861.26,289.8,869.02,291.62"/>
<path class="st21" d="M161.52,276.66c5.42,9.9,5.93,19.3,2.71,28.45c-5.24,14.95-13.62,28.13-25.26,39.08
	c-2.46,2.3-5.08,4.73-8.1,6.12c-9.24,4.35-18.61,8.39-28.04,12.2c-7.7,3.12-11.98,0.85-13.44-6.97c-2.11-11.7-4.04-23.46-6.06-35.2
	c-0.19-1.36-0.47-2.71-0.57-4.07c-0.79-9.33,1.17-11.07,10.44-12.08c9.08-0.98,18.61-1.61,26.93-4.86
	c11.32-4.42,21.7-11.16,32.45-17.03C155.46,280.73,158.14,278.84,161.52,276.66"/>
<path class="st32" d="M320.61,151.41c1.78-1.96,2.54-3.32,3.7-3.95c11.46-6.22,16.55-17.78,23.08-27.99
	c1.92-2.99,2.34-7.45,2.14-11.17c-0.58-11.02-1.54-22.06-2.85-33.03c-0.78-6.47-1.2-6.42,5.06-8.81c2.72-1,5.42-2.03,8.16-2.97
	c0.87-0.31,1.85-0.31,3.06-0.49c0.45,0.56,1.14,1.07,1.25,1.67c2.12,11.55,6.02,22.73,5.69,34.77c-0.38,13.51-1.47,26.87-4.17,40.12
	c-1.38,6.82-1.85,13.85-3.5,20.59c-1.76,7.18-3.14,7.76-9.37,4.3c-8.27-4.62-16.97-7.92-26.12-10.3
	C324.96,153.67,323.34,152.64,320.61,151.41"/>
<path class="st28" d="M824.38,152.64c-1.54,2.57-2.23,4.1-3.26,5.31c-3.84,4.33-7.78,8.54-11.69,12.78
	c-4.04,4.37-8.92,5.73-14.32,3.19c-3.86-1.83-7.96-3.79-10.97-6.71c-12.42-12.02-22.62-25.51-26.12-43.05
	c-2.5-12.6,0.71-21.55,11.04-27.95c0.76-0.47,1.72-0.58,3.08-1c0.56,1.81,1.27,3.3,1.43,4.86c0.18,2.12,0.09,4.31-0.04,6.47
	c-1.18,18.67,8.36,30.4,24.56,37.6c5.24,2.34,10.86,3.81,16.33,5.6C817.33,150.68,820.28,151.46,824.38,152.64"/>
<path class="st26" d="M948.32,131.88c4.23,3.28,6.34,4.79,8.36,6.5c7.38,6.09,15.33,11.23,25.01,12.77
	c4.48,0.73,6.34,3.15,6.24,7.66c-0.19,12.49-0.16,25.01-0.35,37.53c-0.03,1.23-0.79,2.49-1.67,5.01
	c-10.25-2.93-19.3-8.1-24.35-16.62C952.52,169.47,944.73,153.29,948.32,131.88"/>
<path class="st33" d="M187.79,165.74c-11.39-6.05-21.79-11.61-33.56-17.85c2.33-3,4.1-5.61,6.21-7.95
	c8.99-9.97,14.48-21.19,14.03-35.04c-0.19-5.65-1.32-10.6-4.64-15.26c-4.95-6.88-9.52-14.03-14.16-21.16
	c-1.2-1.86-1.92-4.04-2.96-6.28c4.92-3.75,9.05-2.05,12.58,0.57c21.54,16.02,34.57,37.34,37.37,64.11
	C204.22,141.74,199.11,154.89,187.79,165.74"/>
</svg>
