<?xml version="1.0" encoding="utf-8"?>
<!-- Generator: Adobe Illustrator 24.1.0, SVG Export Plug-In . SVG Version: 6.00 Build 0)  -->
<svg version="1.1" id="Capa_1" xmlns="http://www.w3.org/2000/svg" xmlns:xlink="http://www.w3.org/1999/xlink" x="0px" y="0px"
	 viewBox="0 0 1080 1080" style="enable-background:new 0 0 1080 1080;" xml:space="preserve">
<style type="text/css">
	.st0{fill:#4AA758;}
	.st1{fill:#EFE5DE;}
	.st2{fill:none;stroke:#2E2D2C;stroke-width:1.667;stroke-miterlimit:10;}
	.st3{fill:#64B449;}
	.st4{fill:#E4B632;}
	.st5{fill:#C5222F;}
	.st6{fill:#4B9E46;}
	.st7{fill:#418045;}
	.st8{fill:#F9C315;}
	.st9{fill:#E8422E;}
	.st10{fill:#F59C2C;}
	.st11{fill:#1D95D3;}
	.st12{fill:#A11E44;}
	.st13{fill:#2BBBE0;}
	.st14{fill:#ED6B2E;}
	.st15{fill:#E6263C;}
	.st16{fill:#DD1A69;}
	.st17{fill:#18486A;}
	.st18{fill:#C6982D;}
	.st19{fill:#076A9D;}
	.st20{fill:#1D1D1B;}
	.st21{fill:#9E264C;}
	.st22{fill:#231F20;}
	.st23{fill:#FFFFFF;}
	.st24{fill:#448350;}
	.st25{fill:#5DBB5D;}
	.st26{fill:#F37139;}
	.st27{fill:#B25529;}
	.st28{fill:#E22D74;}
	.st29{fill:#25A9E1;}
	.st30{fill:#BF933D;}
	.st31{fill:#FEFEFE;}
	.st32{fill:#F04E39;}
	.st33{fill:#F8BF31;}
	.st34{fill:#C52E37;}
	.st35{fill:#1F96D3;}
	.st36{fill:#0C2D45;}
	.st37{fill:#65BCE9;}
	.st38{fill:#3D7DA2;}
	.st39{fill:#1F6EA1;}
	.st40{fill:#E6293B;}
	.st41{fill:#F89B39;}
	.st42{fill:#E0B343;}
	.st43{fill:#EE3647;}
	.st44{fill:#274E70;}
	.st45{fill:#00C0E5;}
	.st46{fill:#F9D776;}
	.st47{fill:none;stroke:#3C3C3B;stroke-width:0.402;stroke-miterlimit:10;}
	.st48{fill:#020202;}
	.st49{fill:#0E0F10;}
	.st50{fill:#222122;}
	.st51{fill:#71C6D3;}
	.st52{fill:#478087;}
	.st53{opacity:0.42;}
	.st54{clip-path:url(#SVGID_2_);fill:#71C6D3;}
	.st55{fill:#F5D13F;}
	.st56{fill:#F3982E;}
	.st57{fill:#F15753;}
	.st58{fill:#DB2E3D;}
	.st59{fill:#3B2D47;}
	.st60{fill:none;stroke:#274E70;stroke-width:6;stroke-miterlimit:10;}
	.st61{fill:none;stroke:#3C3C3B;stroke-width:0.483;stroke-miterlimit:10;}
	.st62{fill:#FAAD5C;}
	.st63{fill:#B6772F;}
	.st64{clip-path:url(#SVGID_4_);}
	.st65{clip-path:url(#SVGID_6_);fill:#1E1D1D;}
</style>
<g>
	<defs>
		<path id="SVGID_3_" d="M611.03,318.08c13.6,7.23,24.2,3.71,31.79-10.57c4.3-8.08,5.6-14.12,3.92-18.13
			c-1.69-4.01-5.93-7.82-12.73-11.43s-13.19-4.42-19.16-2.42c-5.97,2.01-10.25,5.43-12.83,10.28c-2.43,4.58-2.82,10.42-1.14,17.53
			C602.54,310.45,605.93,315.36,611.03,318.08z M653.83,238.79c6.29,3.34,12.49,3.3,18.61-0.13c2.94-2.15,5.02-4.38,6.25-6.7
			c1.23-2.31,1.72-7.62,1.48-15.92c-0.53-8.44,0.6-15.27,3.36-20.48c2.77-5.21,16.07-11.68,39.89-19.43
			c9.96-3.24,20.16-6.91,30.58-11.02c24.47-9.63,41.78-23.99,51.93-43.09c5.85-10.99,7.98-23.78,6.41-38.34
			c-3.1-26.52-16.1-45.86-39.01-58.04c-16.2-8.61-34.74-11.14-55.63-7.59c-20.88,3.56-34.25,10.83-40.09,21.83
			c-6.46,12.15-3.69,21.42,8.33,27.81c4.19,2.23,13.27-0.37,27.25-7.78c5.25-3.14,11.84-4.75,19.75-4.81
			c7.91-0.06,15.5,1.84,22.77,5.7c7.26,3.86,12.99,10.44,17.19,19.72c4.2,9.28,4.45,17.4,0.76,24.34
			c-5.23,9.84-22.05,18.89-50.46,27.17c-8.2,1.95-17.44,4.83-27.71,8.65c-21.84,8.06-37.76,21.49-47.76,40.3
			c-5.69,10.71-7.67,22.18-5.94,34.42C643.53,227.65,647.54,235.44,653.83,238.79z M390.99,338.5c16.15,8.59,34.72,11.12,55.71,7.59
			c20.99-3.53,34.41-10.8,40.27-21.82c2.77-5.22,3.41-10.27,1.9-15.17c-1.51-4.89-4.7-8.63-9.57-11.22
			c-4.87-2.59-14.46-0.34-28.77,6.74c-14.3,7.08-28.28,7-41.92-0.26c-7.52-4-13.36-10.82-17.51-20.47
			c-4.16-9.65-4.46-17.81-0.92-24.47c5.24-9.86,22.19-18.88,50.83-27.08c6.18-1.55,15.48-4.6,27.9-9.15
			c22.25-8.25,38.23-21.51,47.94-39.78c5.86-11.02,7.83-22.61,5.91-34.79c-1.92-12.18-6.78-20.34-14.58-24.48
			c-3.34-1.78-7.42-1.99-12.24-0.65c-4.82,1.34-8.04,3.53-9.66,6.58c-1.62,3.04-2.28,8.83-1.99,17.35
			c0.29,8.52-1.03,15.54-3.96,21.05s-16.07,12.09-39.44,19.75c-9.8,2.97-19.76,6.6-29.9,10.88c-24.87,9.83-42.4,24.31-52.57,43.45
			c-6.17,11.6-8.33,24.39-6.48,38.39C355.14,307.16,368.15,326.35,390.99,338.5z M534.35,88.34c4.53,2.41,9.75,2.51,15.66,0.29
			c5.9-2.22,10.22-5.88,12.94-11c2.86-5.39,3.07-11.41,0.61-18.07c-2.46-6.66-6.09-11.27-10.91-13.83
			c-13.04-6.93-23.35-3.26-30.94,11.02c-4.44,8.35-5.71,14.5-3.81,18.45C519.8,79.13,525.28,83.52,534.35,88.34z"/>
	</defs>
	<clipPath id="SVGID_2_">
		<use xlink:href="#SVGID_3_"  style="overflow:visible;"/>
	</clipPath>
	<g style="clip-path:url(#SVGID_2_);">
		<defs>
			<rect id="SVGID_5_" x="-7733.74" y="-2230.1" width="12677.04" height="7130.83"/>
		</defs>
		<clipPath id="SVGID_4_">
			<use xlink:href="#SVGID_5_"  style="overflow:visible;"/>
		</clipPath>
		
			<rect x="321.38" y="-20.17" transform="matrix(0.4695 -0.8829 0.8829 0.4695 148.1002 610.7303)" style="clip-path:url(#SVGID_4_);fill:#1E1D1D;" width="521.76" height="404.58"/>
	</g>
</g>
<path class="st22" d="M358.46,407.79c-4.23-1.28-7.7-3.05-11.26-3.21c-3.21-0.14-6.54,1.56-9.82,2.3
	c-5.82,1.33-11.56,3.05-17.45,3.63c-9.42,0.91-18.17-2.02-26.03-7.09c-3.02-1.95-5.26-5.05-8-7.77c5.79-3.47,11.91-2.51,15.56,1.54
	c2.44,2.72,5.07,5.14,9.44,4.33c4.05-0.74,8.21-0.81,12.3-1.35c1.09-0.16,2.09-0.98,3.51-1.65c-4.75-1.86-9.05-3.16-13-5.16
	c-12.19-6.12-21.94-15.31-31.52-24.87c-6.3-6.28-10.58-13.4-12.24-21.94c-1.14-5.77-1.7-11.7-2.02-17.56
	c-0.47-8.49,3.74-15.05,9.7-20.56c3.12-2.91,10.91-1.81,13.07,1.88c0.65,1.12,0.51,3.79-0.33,4.51c-9.63,8.47-8.19,19.12-6.68,30.05
	c1.33,9.79,6.19,17.26,13.14,23.96c6.98,6.72,13.68,13.7,22.54,18.03c0.98,0.46,1.98,0.93,3,1.33c0.65,0.23,1.35,0.35,2.4-0.14
	c-0.98-0.81-1.88-1.65-2.91-2.4c-6.68-4.77-12.31-10.54-16.42-17.68c-3.93-6.91-4.28-14.21-2.28-21.77
	c0.74-2.81,2.23-4.26,5.23-3.79c1.84,0.28,3.77,0.23,5.44,0.93c2.65,1.12,4.54,2.54,3.84,6.4c-2.02,10.84,0.49,20.38,9.68,27.47
	c3.23,2.49,6.14,5.37,9.3,7.98c5.4,4.37,11.51,5.51,18.35,4.4c6.26-1,12.61-1.51,18.96-2.05c1.84-0.14,3.79,0.72,5.61,0.49
	c6.42-0.86,12.77-2.53,19.19-2.86c7.3-0.4,14.63,0.3,21.96,0.58c0.81,0.02,1.7,0.42,2.4,0.86c1.63,1.05,4.68,1.58,3.51,4.28
	c-1.02,2.33-3.09,4.3-6.23,3.95c-3.26-0.37-6.51-1.21-9.72-1c-2.88,0.19-5.75,1.44-8.56,2.4c-1.37,0.44-2.61,1.37-3.93,1.91
	c-4.44,1.68-8.86,3.33-13.33,4.84c-4.54,1.51-7.75,4.44-10.3,8.37c-5.89,9.05-11.51,18.31-17.91,26.98
	c-8.4,11.37-13.82,23.98-18.14,37.24c-2.91,8.98-1.26,17.66,1.49,26.35c3.02,9.61,8.42,16.93,18.12,20.73
	c3.84,1.51,7.21,4.19,11.07,5.51c8.82,3.02,17.75,5.58,26.66,8.26c8.47,2.56,16.89,5.42,25.47,7.4c12.26,2.81,24.66,5.02,37.08,7.28
	c5.88,1.05,11.84,1.91,17.79,2.19c4.68,0.21,9.42-0.63,15.24-1.07c-3.4-1.77-5.93-2.98-8.33-4.42c-3.75-2.26-7.56-4.44-11.05-7.09
	c-4.26-3.21-8.23-6.79-12.26-10.33c-7.84-6.91-11.56-16.07-13.51-26.01c-3.42-17.54,2.84-32.31,13.79-45.59
	c2-2.44,4.37-4.63,6.09-7.26c6.82-10.4,17.59-15.14,28.29-19.73c6.82-2.91,14.4-4.09,21.14-7.14c6.84-3.07,13.33-4.16,20.63-2.42
	c8.3,1.98,17,2.47,25.08,4.95c8.7,2.7,17.4,6.63,23.59,13.51c5.44,5.98,10,12.79,13.12,20.54c5.16,12.84,8.82,25.96,9.61,39.75
	c0.16,3.19-1.72,6.49-2.56,9.77c-0.35,1.42-0.37,2.91-0.74,4.3c-0.72,3.05,0.16,6.72-3.65,8.58c-0.91,0.46-1.28,2.02-1.91,3.09
	c-1.81,3-3.63,6-5.47,9c-0.4,0.72-0.77,1.49-0.72,2.88c3.19-1.58,6.35-3.26,9.58-4.68c1.54-0.67,3.4-1.47,4.91-1.19
	c7.51,1.33,13.65-3.33,20.63-4.26c7.47-1,14-4.14,20.21-8.28c2.49-1.63,5.79-1.98,8.37-3.49c3.98-2.35,7.68-5.21,11.49-7.84
	c2.51-1.74,4.86-3.95,7.63-5.09c6.47-2.58,10.26-7.77,13.91-13.17c3.75-5.49,7.63-10.93,10.7-16.77c2.16-4.07,3.51-8.68,4.44-13.21
	c1.84-8.98,3.33-18.05,4.65-27.17c1.77-12.3-0.6-24.47-1.88-36.68c-0.28-2.63-1.79-3.23-3.79-3.7c-5.98-1.37-12.1-2.33-17.91-4.19
	c-7.21-2.3-14.31-5.09-21.19-8.26c-2.28-1.05-3.95-3.81-5.51-6.05c-0.49-0.67,0.07-3.05,0.56-3.21c1.63-0.44,3.56-0.7,5.12-0.21
	c3.95,1.23,7.7,3.09,11.61,4.37c6.35,2.07,12.82,3.93,19.24,5.82c9.03,2.65,17.35-0.3,25.33-3.84c20.98-9.33,29.4-27.08,31.59-48.71
	c0.72-6.89,1-13.7-0.88-20.52c-1-3.58,0.79-5,4.44-4.12c4.37,1.09,8.35,5.61,8.84,10.77c1.02,10.72,0.46,21.38-2.14,31.87
	c-1.21,4.84-2.7,9.61-3.47,15.05c3.47-3.49,7.33-6.68,10.28-10.54c4.49-5.93,8.51-12.26,12.47-18.59c1.77-2.86,2.14-6.05-0.51-8.86
	c-0.07-0.09-0.12-0.23-0.14-0.35c-0.16-2.14-0.35-4.3-0.51-6.47c2.12,0.53,4.42,0.74,6.35,1.67c6.28,3,7.63,9.19,8.16,15.12
	c0.28,3-1.51,6.42-3.05,9.28c-5.7,10.79-14,19.54-22.63,28.03c-7.98,7.84-17.24,13.82-27.24,18.66c-0.74,0.37-1.42,0.88-2.93,1.84
	c3.42,0.86,6.05,1.74,8.72,2.09c8.28,1.12,16.75,1.37,24.82,3.26c4.21,0.98,7.84,4.58,11.51,7.3c0.51,0.37,0.19,2.88-0.54,3.61
	c-0.95,0.95-2.79,1.74-4.09,1.53c-8.75-1.35-17.47-2.84-26.15-4.56c-9.89-1.98-19.73-4.14-29.54-6.37
	c-3.44-0.79-4.14,0.58-3.79,3.65c1,8.77,2.68,17.54,2.63,26.31c-0.07,10.14-1.47,20.31-2.79,30.38c-0.56,4.16-2.58,8.14-3.77,12.26
	c-0.54,1.84-0.65,3.81-1.09,5.68c-0.28,1.16-0.65,2.35-1.28,3.33c-4.21,6.61-8.19,13.4-12.84,19.66
	c-3.91,5.3-7.44,10.86-14.19,13.77c-5.28,2.26-9.54,6.72-14.45,9.93c-3.33,2.16-6.95,3.88-10.49,5.68c-3.37,1.68-6.7,3.47-10.23,4.7
	c-7.68,2.72-15.4,5.4-23.26,7.56c-4.42,1.21-9.14,1.3-13.72,2c-1.54,0.26-3.21,0.49-4.49,1.28c-5.93,3.7-12.35,5.79-19.19,6.82
	c-2.09,0.3-4.14,0.91-6.7,1.49c0.51,5.05,0.91,10.54,1.67,15.96c1.65,11.51,3.14,23.05,5.33,34.47c2.88,14.89,6.42,29.66,9.63,44.47
	c3,13.72,5.91,27.45,8.91,41.15c0.77,3.35,1.93,6.61,2.58,9.96c0.86,4.7,1.51,9.42,2.02,14.14c0.77,7.7,1.47,15.4,1.95,23.12
	c0.35,5.86,0.19,11.77,0.47,17.63c0.26,5.23,0.81,10.47,1.21,15.7c0.12,1.67,0,3.37,0.05,5.05c0.19,7.33,3.84,13.24,7.84,18.98
	c4.09,5.93,7.75,12.21,12.33,17.72c5.12,6.09,11.12,11.4,16.61,17.21c6.65,7.07,13.17,14.26,19.68,21.47
	c11.24,12.49,22.4,25.05,33.64,37.59c0.81,0.91,2.16,1.51,2.61,2.54c0.58,1.23,1,2.95,0.6,4.16c-2.51,7.44-5.51,14.7-7.89,22.17
	c-4.33,13.56-8.28,27.24-12.44,40.85c-2.98,9.86-5.75,19.82-9.21,29.52c-3.37,9.44-7.56,18.59-11.3,27.91
	c-2.19,5.42-4.21,10.91-6.65,17.38c5.07,0,9.61-0.35,14.05,0.09c6.93,0.7,13.82,2,20.73,2.95c6.07,0.86,12.17,1.56,18.28,2.37
	c6.68,0.86,13.35,1.81,20.03,2.61c9.77,1.19,19.56,2.09,29.31,3.42c3.7,0.51,7.49,1.44,10.89,3c1.44,0.68,2.77,3.51,2.61,5.21
	c-0.09,1.07-3.14,2.79-4.72,2.65c-8.68-0.67-17.31-1.7-25.91-2.91c-4.37-0.6-8.61-2.19-12.96-2.72c-8.4-1-16.89-1.44-25.31-2.37
	c-3.77-0.42-7.44-1.79-11.21-2.16c-7.93-0.77-15.91-1.3-23.87-1.67c-5.89-0.26-11.91,0.54-17.66-0.4c-3.09-0.51-5.86-3.56-8.68-5.63
	c-0.84-0.6-1.28-1.7-1.51-2c6.68-16.33,13.45-32.24,19.66-48.38c3.65-9.51,6.51-19.33,9.49-29.1c4.88-16,9.54-32.08,14.33-48.13
	c1.74-5.88,3.79-11.7,5.33-17.66c0.4-1.58,0.02-4.02-1-5.23c-10.19-11.98-20.4-23.94-30.96-35.57
	c-8.61-9.47-17.42-18.73-26.56-27.63c-9.03-8.82-16.07-19.05-22.87-29.52c-2.16-3.33-4.19-4.58-8.4-3.95
	c-5.89,0.91-11.96,0.6-17.96,0.88c-1.81,0.09-3.72,0.14-5.47,0.63c-8.56,2.49-17.26,0.72-25.89,1.12c-1.84,0.09-3.67,0.37-5.51,0.33
	c-9.26-0.14-18.49-0.44-27.75-0.49c-12.35-0.07-24.7,0.05-37.03,0.09c-3.75,0.02-7.49-0.05-11.21,0.14c-1.3,0.07-2.91,0.44-3.81,1.3
	c-4.09,3.67-7.96,7.61-11.91,11.42c-4.56,4.44-9.1,8.91-13.72,13.26c-8.3,7.82-16.89,15.33-24.96,23.38
	c-14.82,14.84-29.77,29.56-46.01,42.85c-9.23,7.54-18.93,14.45-28.17,21.93c-6.82,5.54-12.93,11.98-19.96,17.26
	c-8.63,6.47-18.12,11.77-26.75,18.21c-12.35,9.21-24.35,18.93-36.38,28.59c-6.93,5.56-13.49,11.63-20.59,16.96
	c-2.74,2.07-6.77,2.37-9.75,4.21c-8.26,5.09-16.35,10.42-24.28,16c-4.7,3.28-8.89,7.35-13.54,10.72c-1.42,1.02-4.37,1.84-5.35,1.09
	c-3-2.33-5.44-5.37-7.93-8.28c-0.3-0.33,0.23-1.58,0.63-2.28c6.86-12.05,14.17-23.87,20.54-36.15
	c6.77-13.07,12.65-26.59,18.91-39.89c8.51-18.07,17.03-36.15,25.52-54.22c1.07-2.28,2.02-4.63,3.14-6.91
	c1.05-2.16,5.3-1.95,7.86,0.33c0.44,0.37,0.84,0.81,1.3,1.19c4.86,3.88,4.49,4.51,0.93,9.58c-3.54,5.09-6.35,10.77-8.93,16.45
	c-10.05,22.12-19.77,44.41-29.89,66.48c-3.44,7.58-7.72,14.79-11.63,22.17c-0.42,0.81-0.74,1.7-0.63,2.93
	c3.88-2.88,7.58-6.05,11.7-8.56c2.84-1.72,6.3-2.37,9.35-3.84c2.93-1.42,5.93-2.91,8.42-4.98c9.72-8.03,19.07-16.49,28.87-24.45
	c13.21-10.75,26.84-20.91,41.47-29.82c8.14-4.95,15.05-11.86,22.54-17.89c10.12-8.16,20.21-16.42,30.43-24.49
	c15.51-12.3,30.38-25.26,44.27-39.45c13.4-13.68,27.73-26.4,41.57-39.68c4.21-4.07,8.19-8.47,12.05-12.89
	c0.91-1.05,0.58-3.21,1.49-4.28c1.63-1.88,3.58-3.68,5.75-4.95c5.98-3.58,9.47-8.93,12.14-15.21c1.84-4.3,4.47-8.3,6.54-12.54
	c7.02-14.47,12.35-29.61,16.72-45.1c1.74-6.12,4.7-11.96,5.82-18.14c3-16.49,6.33-32.98,7.61-49.64
	c0.81-10.82-1.63-21.91-2.91-32.82c-0.91-7.56-2.16-15.07-3.58-22.54c-0.95-5.05-2.35-10.03-3.77-14.98
	c-0.63-2.23-1.93-3.23-4.75-2.49c-2.09,0.56-4.58-0.7-6.89-0.6c-4.88,0.19-9.75,0.79-14.63,1.07c-2.54,0.14-5.12,0.19-7.65-0.19
	c-13.28-1.93-26.68-3.42-39.82-6.19c-13.31-2.77-26.38-6.68-39.47-10.37c-10.23-2.88-20.61-5.49-30.43-9.49
	c-9.28-3.74-18.28-8.58-26.7-13.98c-8.84-5.65-12.05-15.21-15-24.98c-5.84-19.45,2.02-35.82,11.26-51.64
	c6.82-11.63,15.12-22.38,22.73-33.54C356.81,410.9,357.44,409.6,358.46,407.79 M600.84,768.1c4.47-5.79,4.33-5.79,3.95-9.49
	c-0.63-6.21-1.19-12.44-1.58-18.68c-0.37-6.58-0.49-13.21-0.84-19.79c-0.21-4.05-0.47-8.07-0.91-12.1c-0.4-3.65-0.88-7.3-1.56-10.91
	c-0.63-3.12-1.72-6.14-2.28-9.28c-1.7-9.05-2.68-18.26-4.95-27.15c-4.33-17-9.19-33.85-11.58-51.31
	c-2.33-16.96-5.19-33.84-7.79-50.78c-0.44-2.95-0.84-5.93-1.21-8.33c-8.96,2.26-17.42,4.88-26.05,6.42
	c-6.09,1.07-12.47,0.77-18.7,0.88c-5,0.12-9.54,2.95-8.1,9.21c1.86,8.12,2.88,16.4,4.28,24.61c1.72,9.72,3.4,19.47,5.14,29.22
	c2.07,11.47,1.65,22.91-0.12,34.36c-1.02,6.68-2.07,13.31-3.12,19.96c-0.4,2.56-0.54,5.16-1.23,7.63
	c-3.05,10.33-6.19,20.63-9.44,30.91c-2,6.28-4.19,12.49-6.49,18.66c-3.58,9.54-7.28,19.03-11.03,28.49
	c-0.58,1.44-1.47,2.81-2.37,4.12c-1.37,2-2.91,3.86-4.33,5.82c-1.28,1.77-2.54,3.56-3.72,5.4c-0.81,1.26-1.51,2.56-2.37,4.02
	c6.02,0,11.4-0.21,16.77,0.05c11.37,0.54,22.82,2.61,34.03,1.65c14.17-1.21,28.38,0.93,42.52-2.07c7.91-1.68,16.31-1.12,24.47-1.72
	c1.12-0.07,3.05-0.98,3.07-1.54c0.05-1.81,1.54-4.19-1.37-5.44C602.77,770.4,601.96,769.15,600.84,768.1 M489,449.59
	c1.88,1.05,2.86,1.7,3.93,2.14c3.84,1.63,6.49,4.33,6.98,8.54c0.19,1.44-0.44,3.37-1.42,4.44c-0.65,0.72-2.68,0.7-3.91,0.37
	c-5.98-1.68-9.05-6.02-10.1-12.07c-2.56,2.3-5.14,4.16-7.09,6.56c-7.26,8.84-15.26,16.96-18.33,28.87
	c-3.95,15.4-1.56,28.54,10.05,39.5c3.84,3.63,8.12,7.23,12.89,9.28c6.56,2.79,13.63,4.61,20.66,5.89c8.35,1.49,16.91,2.91,25.33,2.7
	c16.45-0.47,32.33-3.84,46.17-13.65c2.49-1.77,5.65-2.88,7.47-5.14c6.79-8.61,10.77-18.61,12.07-29.52
	c1.05-8.77-0.79-17.33-3.35-25.73c-0.84-2.77-1.7-5.54-2.56-8.28c-0.54,0.16-1.09,0.35-1.63,0.51c0.91,2.95,2.02,5.86,2.65,8.89
	c2.21,10.49,1.56,21.03-0.05,31.52c-0.14,0.77-0.67,1.51-1.14,2.21c-1.63,2.56-3.74,4.91-4.88,7.65
	c-3.07,7.44-7.44,13.7-14.44,17.96c-2.05,1.23-3.81,2.98-5.98,3.93c-5.16,2.35-10.72,3.37-16.35,4.33
	c-4.19,0.7-8.33,2.56-12.51,2.58c-14.52,0.14-28.77-1.26-41.71-9.07c-9.17-5.56-16.21-13-20.96-22.45c-3.3-6.51-4.26-13.77-5-20.98
	c-0.26-2.65,2.47-5.49,4.75-5.28c1.58,0.12,3.3,0,4.77-0.49c4.05-1.4,7.93-3.33,12.03-4.49c5.88-1.7,11.93-2.65,17.79-4.4
	c4.65-1.37,9-3.72,13.61-5.19c9.19-2.91,18.47-5.54,27.73-8.26c1.88-0.54,3.75-1.16,5.65-1.51c3.79-0.72,7.63-1.35,11.44-1.91
	c2.44-0.4,4.89-0.95,7.33-0.86c2.23,0.07,3.95-0.4,5.75-1.77c1.05-0.79,2.88-0.65,4.35-0.72c0.86-0.05,1.74,0.3,3,0.56
	c-5.93-14.96-18.73-17.59-32.1-19.49c0.49,1.12,1.28,1.91,2.09,2.65c1.86,1.65,4.54,2.95,5.35,5c0.74,1.86-0.26,4.65-1.14,6.75
	c-0.23,0.49-3.19-0.07-4.84-0.37c-2.65-0.46-3.61-2.61-4.98-4.7c-3.28-4.91-3.44-6.7,0.56-10.07c-3.12-0.51-6.28-0.86-9.4-1.54
	c-5.14-1.07-10.12-0.86-15.05,0.91c-2.74,1-5.44,2.4-8.3,2.86C506.52,439.72,498.47,444.84,489,449.59 M577.28,482.85
	c-0.42-3.02-0.79-5.33-1.07-7.63c-0.47-4.51-2.02-5.3-6.16-3.86c-2.93,1.02-6.12,1.28-9.21,1.79c-2.4,0.42-4.86,0.37-7.12,1.07
	c-3.58,1.14-6.96,3.07-10.58,4.07c-5.68,1.61-11.51,2.7-17.26,4c-0.84,0.19-1.77,0.19-2.49,0.58c-6.21,3.14-12.77,5.07-19.45,7.05
	c-6.61,1.98-13.82,2.16-20.07,6.21c-3.98,2.61-5.44,3.09-3.93,7.7c1.05,3.16,1.77,6.58,3.54,9.28c2.84,4.3,5.77,9.05,9.86,11.96
	c7.33,5.21,16.4,6.56,25.17,6.28c8.23-0.28,16.47-2.16,24.63-3.54c6.89-1.14,13.51-3.23,18.07-8.86
	c3.79-4.68,6.58-10.14,10.35-14.84C576.84,497.53,576.28,489.71,577.28,482.85"/>
<path class="st23" d="M600.84,768.09c1.12,1.05,1.93,2.3,3.09,2.81c2.91,1.28,1.42,3.63,1.37,5.44c-0.02,0.56-1.95,1.47-3.05,1.54
	c-8.19,0.6-16.56,0.05-24.49,1.74c-14.14,2.98-28.36,0.84-42.5,2.05c-11.24,0.95-22.68-1.12-34.03-1.65
	c-5.4-0.26-10.77-0.02-16.79-0.02c0.86-1.47,1.56-2.79,2.4-4.05c1.16-1.81,2.42-3.63,3.72-5.4c1.4-1.95,2.95-3.81,4.3-5.82
	c0.91-1.28,1.79-2.65,2.37-4.12c3.74-9.47,7.44-18.93,11.05-28.47c2.28-6.19,4.47-12.4,6.47-18.68c3.26-10.28,6.4-20.56,9.44-30.91
	c0.7-2.44,0.84-5.07,1.26-7.61c1.05-6.68,2.09-13.31,3.12-19.96c1.77-11.44,2.16-22.91,0.09-34.38c-1.74-9.72-3.42-19.47-5.12-29.22
	c-1.42-8.21-2.44-16.49-4.3-24.59c-1.42-6.28,3.09-9.12,8.1-9.21c6.23-0.14,12.61,0.16,18.73-0.91c8.63-1.54,17.07-4.16,26.05-6.42
	c0.35,2.42,0.74,5.37,1.19,8.35c2.63,16.91,5.49,33.82,7.79,50.78c2.4,17.45,7.26,34.29,11.58,51.29
	c2.28,8.89,3.26,18.12,4.95,27.17c0.58,3.12,1.67,6.14,2.28,9.28c0.67,3.58,1.19,7.23,1.56,10.89c0.44,4.02,0.72,8.07,0.91,12.1
	c0.35,6.61,0.47,13.21,0.86,19.82c0.37,6.23,0.95,12.44,1.56,18.66C605.19,762.3,605.3,762.3,600.84,768.09"/>
<path class="st23" d="M489.01,449.58c9.47-4.74,17.52-9.84,27.17-11.35c2.86-0.47,5.56-1.84,8.3-2.84c4.93-1.79,9.91-2,15.05-0.93
	c3.12,0.68,6.28,1.05,9.4,1.54c-4,3.37-3.84,5.16-0.56,10.07c1.37,2.09,2.33,4.23,4.98,4.7c1.65,0.3,4.61,0.86,4.84,0.37
	c0.88-2.09,1.88-4.88,1.12-6.75c-0.79-2.05-3.47-3.35-5.33-5c-0.81-0.74-1.61-1.51-2.09-2.65c13.38,1.91,26.17,4.56,32.1,19.49
	c-1.26-0.26-2.14-0.6-3-0.56c-1.47,0.09-3.3-0.07-4.35,0.72c-1.81,1.4-3.51,1.86-5.75,1.77c-2.44-0.09-4.88,0.49-7.33,0.86
	c-3.81,0.58-7.65,1.19-11.44,1.91c-1.91,0.35-3.77,0.98-5.65,1.51c-9.26,2.72-18.54,5.35-27.73,8.26
	c-4.61,1.47-8.96,3.81-13.61,5.19c-5.86,1.74-11.91,2.72-17.79,4.4c-4.09,1.19-7.98,3.09-12.03,4.49c-1.47,0.49-3.21,0.63-4.77,0.49
	c-2.3-0.21-5,2.63-4.75,5.28c0.74,7.21,1.7,14.47,5,20.98c4.75,9.44,11.79,16.91,20.96,22.45c12.93,7.82,27.19,9.21,41.71,9.09
	c4.19-0.05,8.33-1.88,12.51-2.61c5.61-0.95,11.19-1.98,16.35-4.33c2.16-0.95,3.93-2.7,5.98-3.93c7-4.23,11.35-10.49,14.45-17.96
	c1.14-2.75,3.26-5.09,4.88-7.65c0.47-0.7,1-1.42,1.14-2.21c1.61-10.49,2.26-21.03,0.05-31.52c-0.63-3-1.74-5.91-2.65-8.86
	c0.54-0.19,1.09-0.37,1.63-0.54c0.86,2.75,1.72,5.51,2.56,8.28c2.56,8.4,4.4,16.96,3.35,25.75c-1.3,10.89-5.28,20.89-12.1,29.52
	c-1.79,2.23-4.95,3.37-7.44,5.12c-13.86,9.82-29.73,13.19-46.17,13.65c-8.44,0.23-16.98-1.21-25.33-2.7
	c-7.02-1.28-14.12-3.09-20.66-5.88c-4.77-2.05-9.05-5.65-12.89-9.28c-11.61-10.96-14-24.1-10.05-39.5
	c3.07-11.91,11.05-20,18.33-28.87c1.95-2.4,4.54-4.23,7.09-6.56c1.05,6.05,4.12,10.4,10.1,12.07c1.23,0.35,3.26,0.37,3.91-0.37
	c0.98-1.07,1.61-3,1.42-4.44c-0.49-4.21-3.14-6.91-6.98-8.54C491.87,451.28,490.89,450.63,489.01,449.58"/>
<path class="st23" d="M577.28,482.85c-1,6.86-0.44,14.68-5.72,21.26c-3.77,4.7-6.56,10.17-10.35,14.84
	c-4.56,5.63-11.19,7.72-18.07,8.86c-8.16,1.37-16.4,3.26-24.63,3.54c-8.77,0.28-17.84-1.07-25.17-6.28
	c-4.09-2.91-7.02-7.65-9.86-11.96c-1.77-2.7-2.49-6.12-3.54-9.28c-1.51-4.61-0.05-5.09,3.93-7.7c6.26-4.05,13.47-4.23,20.07-6.21
	c6.68-1.98,13.24-3.91,19.45-7.05c0.72-0.4,1.65-0.4,2.49-0.58c5.75-1.3,11.58-2.4,17.26-4c3.63-1,7-2.93,10.58-4.07
	c2.26-0.7,4.72-0.65,7.12-1.07c3.09-0.51,6.28-0.77,9.21-1.79c4.14-1.44,5.7-0.65,6.16,3.86
	C576.49,477.52,576.86,479.83,577.28,482.85"/>
</svg>
