<?xml version="1.0" encoding="utf-8"?>
<!-- Generator: Adobe Illustrator 24.1.0, SVG Export Plug-In . SVG Version: 6.00 Build 0)  -->
<svg version="1.1" id="Capa_1" xmlns="http://www.w3.org/2000/svg" xmlns:xlink="http://www.w3.org/1999/xlink" x="0px" y="0px"
	 viewBox="0 0 1080 1080" style="enable-background:new 0 0 1080 1080;" xml:space="preserve">
<style type="text/css">
	.st0{fill:#4AA758;}
	.st1{fill:#EFE5DE;}
	.st2{fill:none;stroke:#2E2D2C;stroke-width:1.667;stroke-miterlimit:10;}
	.st3{fill:#64B449;}
	.st4{fill:#E4B632;}
	.st5{fill:#C5222F;}
	.st6{fill:#4B9E46;}
	.st7{fill:#418045;}
	.st8{fill:#F9C315;}
	.st9{fill:#E8422E;}
	.st10{fill:#F59C2C;}
	.st11{fill:#1D95D3;}
	.st12{fill:#A11E44;}
	.st13{fill:#2BBBE0;}
	.st14{fill:#ED6B2E;}
	.st15{fill:#E6263C;}
	.st16{fill:#DD1A69;}
	.st17{fill:#18486A;}
	.st18{fill:#C6982D;}
	.st19{fill:#076A9D;}
	.st20{fill:#1D1D1B;}
	.st21{fill:#9E264C;}
	.st22{fill:#231F20;}
	.st23{fill:#FFFFFF;}
	.st24{fill:#448350;}
	.st25{fill:#5DBB5D;}
	.st26{fill:#F37139;}
	.st27{fill:#B25529;}
	.st28{fill:#E22D74;}
	.st29{fill:#25A9E1;}
	.st30{fill:#BF933D;}
	.st31{fill:#FEFEFE;}
	.st32{fill:#F04E39;}
	.st33{fill:#F8BF31;}
	.st34{fill:#C52E37;}
	.st35{fill:#1F96D3;}
	.st36{fill:#0C2D45;}
	.st37{fill:#65BCE9;}
	.st38{fill:#3D7DA2;}
	.st39{fill:#1F6EA1;}
	.st40{fill:#E6293B;}
	.st41{fill:#F89B39;}
	.st42{fill:#E0B343;}
	.st43{fill:#EE3647;}
	.st44{fill:#274E70;}
	.st45{fill:#00C0E5;}
	.st46{fill:#F9D776;}
	.st47{fill:none;stroke:#3C3C3B;stroke-width:0.402;stroke-miterlimit:10;}
	.st48{fill:#020202;}
	.st49{fill:#0E0F10;}
	.st50{fill:#222122;}
	.st51{fill:#71C6D3;}
	.st52{fill:#478087;}
	.st53{opacity:0.42;}
	.st54{clip-path:url(#SVGID_2_);fill:#71C6D3;}
	.st55{fill:#F5D13F;}
	.st56{fill:#F3982E;}
	.st57{fill:#F15753;}
	.st58{fill:#DB2E3D;}
	.st59{fill:#3B2D47;}
	.st60{fill:none;stroke:#274E70;stroke-width:6;stroke-miterlimit:10;}
	.st61{fill:none;stroke:#3C3C3B;stroke-width:0.483;stroke-miterlimit:10;}
	.st62{fill:#FAAD5C;}
	.st63{fill:#B6772F;}
	.st64{clip-path:url(#SVGID_4_);}
	.st65{clip-path:url(#SVGID_6_);fill:#1E1D1D;}
</style>
<g>
	<defs>
		<path id="SVGID_3_" d="M2708.03,314.08c13.6,7.23,24.2,3.71,31.79-10.57c4.3-8.08,5.6-14.12,3.92-18.13
			c-1.69-4.01-5.93-7.82-12.73-11.43s-13.19-4.42-19.16-2.42c-5.97,2.01-10.25,5.43-12.83,10.28c-2.43,4.58-2.82,10.42-1.14,17.53
			C2699.54,306.45,2702.93,311.36,2708.03,314.08z M2750.83,234.79c6.29,3.34,12.49,3.3,18.61-0.13c2.94-2.15,5.02-4.38,6.25-6.7
			c1.23-2.31,1.72-7.62,1.48-15.92c-0.53-8.44,0.6-15.27,3.36-20.48c2.77-5.21,16.07-11.68,39.89-19.43
			c9.96-3.24,20.16-6.91,30.58-11.02c24.47-9.63,41.78-23.99,51.93-43.09c5.85-10.99,7.98-23.78,6.41-38.34
			c-3.1-26.52-16.1-45.86-39.01-58.04c-16.2-8.61-34.74-11.14-55.63-7.59c-20.88,3.56-34.25,10.83-40.09,21.83
			c-6.46,12.15-3.69,21.42,8.33,27.81c4.19,2.23,13.27-0.37,27.25-7.78c5.25-3.14,11.84-4.75,19.75-4.81
			c7.91-0.06,15.5,1.84,22.77,5.7s12.99,10.44,17.19,19.72c4.2,9.28,4.45,17.4,0.76,24.34c-5.23,9.84-22.05,18.89-50.46,27.17
			c-8.2,1.95-17.44,4.83-27.71,8.65c-21.84,8.06-37.76,21.49-47.76,40.3c-5.69,10.71-7.67,22.18-5.94,34.42
			C2740.53,223.65,2744.54,231.44,2750.83,234.79z M2487.99,334.5c16.15,8.59,34.72,11.12,55.71,7.59
			c20.99-3.53,34.41-10.8,40.27-21.82c2.77-5.22,3.41-10.27,1.9-15.17c-1.51-4.89-4.7-8.63-9.57-11.22
			c-4.87-2.59-14.46-0.34-28.77,6.74c-14.3,7.08-28.28,7-41.92-0.26c-7.52-4-13.36-10.82-17.51-20.47
			c-4.16-9.65-4.46-17.81-0.92-24.47c5.24-9.86,22.19-18.88,50.83-27.08c6.18-1.55,15.48-4.6,27.9-9.15
			c22.25-8.25,38.23-21.51,47.94-39.78c5.86-11.02,7.83-22.61,5.91-34.79c-1.92-12.18-6.78-20.34-14.58-24.48
			c-3.34-1.78-7.42-1.99-12.24-0.65c-4.82,1.34-8.04,3.53-9.66,6.58c-1.62,3.04-2.28,8.83-1.99,17.35
			c0.29,8.52-1.03,15.54-3.96,21.05s-16.07,12.09-39.44,19.75c-9.8,2.97-19.76,6.6-29.9,10.88c-24.87,9.83-42.4,24.31-52.57,43.45
			c-6.17,11.6-8.33,24.39-6.48,38.39C2452.14,303.16,2465.15,322.35,2487.99,334.5z M2631.35,84.34c4.53,2.41,9.75,2.51,15.66,0.29
			c5.9-2.22,10.22-5.88,12.94-11c2.86-5.39,3.07-11.41,0.61-18.07c-2.46-6.66-6.09-11.27-10.91-13.83
			c-13.04-6.93-23.35-3.26-30.94,11.02c-4.44,8.35-5.71,14.5-3.81,18.45C2616.8,75.13,2622.28,79.52,2631.35,84.34z"/>
	</defs>
	<clipPath id="SVGID_2_">
		<use xlink:href="#SVGID_3_"  style="overflow:visible;"/>
	</clipPath>
	<g style="clip-path:url(#SVGID_2_);">
		<defs>
			<rect id="SVGID_5_" x="-5636.74" y="-2234.1" width="12677.04" height="7130.83"/>
		</defs>
		<clipPath id="SVGID_4_">
			<use xlink:href="#SVGID_5_"  style="overflow:visible;"/>
		</clipPath>
	</g>
</g>
<path class="st22" d="M135,230.78c2.01-0.71,3.9-1.69,5.91-2.07c25.49-4.64,48.44-15.72,71.06-27.77c4.64-2.45,9.5-4.82,14.54-6.11
	c3.81-0.98,5.53-2.99,5.67-6.31c0.31-6.71,0.11-13.45,0.22-20.16c0.2-11.8,0.38-23.57,0.8-35.33c0.13-3.57,2.1-4.93,5.4-3.68
	c8.01,2.99,12.45,3.21,10.1,14.83c-2.23,11.06-1.43,21.97-0.27,33.03c0.62,6.18,0.4,12.51,0,18.73c-0.29,4.59,1.49,7.41,5.42,9.15
	c19.83,8.79,39.63,17.49,59.44,26.29c8.34,3.73,16.57,7.72,24.94,11.42c8.34,3.68,16.95,6.85,25.16,10.84
	c11,5.37,21.7,11.4,32.59,17.04c10.68,5.53,21.59,10.64,32.09,16.48c13.25,7.34,26.18,15.26,39.32,22.84
	c3.26,1.85,6.76,3.3,10.46,5.09c0.91-1.99,1.56-2.97,1.85-4.06c1.92-7.67,2.92-15.75,5.87-22.99c3.88-9.57,9.43-18.51,17.91-24.89
	c6.74-5.04,13.65-10.04,21.03-14.01c5.62-3.03,12-5.04,18.29-6.42c12.91-2.88,26.03-4.89,39.39-3.84
	c11.8,0.91,22.59,4.84,32.36,11.33c2.63,1.76,4.28,5,6.31,7.61c2.32,3.01,4.1,6.56,6.89,9.01c3.75,3.3,8.21,5.75,12.98,8.97
	c9.64-8.94,20.3-16.75,28.88-26.94c7.14-8.45,14.54-16.7,22.21-24.69c9.5-9.88,19.34-19.43,29.11-29.04
	c6.02-5.91,12.07-11.78,18.27-17.49c9.79-9.06,17.06-20.14,25.02-30.71c5.75-7.65,12.42-14.65,18.96-21.7
	c13.4-14.52,26.41-29.37,37.69-45.63c0.8-1.16,1.34-2.5,2.01-3.75c-5-6.16-10.13-11.86-14.56-18.07
	c-5.71-8.1-11.58-15.95-19.43-22.21c-4.37-3.5-5.67-5.96-7.03-10.86c1.34-0.22,2.81-0.91,3.9-0.53c2.7,0.98,5.69,1.92,7.69,3.77
	c8.34,7.61,17.15,14.79,23.4,24.47c3.64,5.64,8.05,10.82,12.11,16.17c1.94,2.54,4.24,2.7,7.03,1.32
	c20.27-9.97,40.53-20.03,60.93-29.78c11.71-5.6,23.73-10.64,35.6-15.9c1.54-0.69,3.14-1.18,4.68-1.9c6.58-3.08,9.84-2.52,14.52,2.59
	c3.95,4.31,3.3,6.83-2.16,8.99c-7.83,3.1-15.75,6.04-23.4,9.52c-8.3,3.79-16.3,8.28-24.56,12.18
	c-12.82,6.07-25.69,12.02-38.65,17.84c-7.36,3.3-11.26,5.53-15.72,10.35c2.94,0.6,5.4,1.4,7.85,1.56
	c24.13,1.67,47.53,7.52,71.06,12.65c2.34,0.51,4.8,1.14,7.14,0.87c6.45-0.69,10.91,2.92,15.55,6.36c2.21,1.61,3.64,3.86,1.9,6.07
	c-1.03,1.32-3.81,2.12-5.58,1.81c-9.26-1.54-18.6-2.99-27.61-5.51c-20.32-5.62-41.15-7.78-61.96-10.06
	c-4.97-0.53-9.95-1.18-15.68-0.67c4.22,4.44,8.07,9.26,12.67,13.25c10.15,8.86,20.65,17.29,31.02,25.87
	c1.29,1.09,2.79,1.94,3.97,3.12c1.67,1.67,2.3,3.75,0.8,5.87c-1.49,2.14-3.75,2.48-5.75,1.16c-3.43-2.18-6.82-4.53-9.9-7.2
	c-14.9-12.91-29.69-25.98-44.9-39.32c-1,0.76-2.48,1.54-3.52,2.72c-14.27,16.3-28.53,32.61-42.69,49.02
	c-2.83,3.26-5.55,6.71-7.72,10.42c-8.54,14.63-21.68,25.02-33.25,36.89c-18.67,19.14-38.5,37.09-55.67,57.68
	c-6.74,8.1-14.9,14.99-22.41,22.44c-2.72,2.7-5.62,5.26-8.14,8.16c-3.26,3.72-5,8.07-4.66,13.25c0.25,4.06,0.31,8.25-0.4,12.24
	c-0.85,4.91-1.96,9.92-3.99,14.43c-3.12,7-7.23,13.58-10.71,20.45c-4.48,8.94-13.78,11.51-21.32,16.42
	c-0.78,0.51-1.7,0.78-2.48,1.14c3.41,20.27,6.89,40.3,10.13,60.38c1.32,8.05,1.94,16.21,3.06,24.31c1.9,13.83,4.3,27.57,5.8,41.44
	c1.7,15.3,3.68,30.71,3.5,46.06c-0.16,14.59,1.96,28.73,3.75,43.02c0.2,1.67,0.8,3.37,0.65,5.02c-1.43,14.32,2.25,28.26,3.35,42.38
	c0.51,6.31-0.29,12.13-1.03,18.29c-1.05,9.28-0.36,18.76-0.8,28.15c-1.09,23.08-2.39,46.15-3.61,69.23
	c-0.47,9.14-1.45,18.29-1.27,27.43c0.22,13.2-3.68,25.65-6.13,38.38c-3.68,19.38-7.83,38.7-11.78,58.06
	c-1.92,9.43-3.97,18.85-5.66,28.33c-1.2,6.62-1.67,13.36-2.92,19.98c-2.05,10.84-4.53,21.61-6.69,32.43
	c-1.18,5.87-2.03,11.82-3.17,17.69c-2.61,12.94-5.15,25.89-7.96,38.79c-1.43,6.56-3.55,12.94-5.13,19.47
	c-1.03,4.22,1.16,7.29,5.55,7.4c9.59,0.25,19.2,0.09,28.82,0.04c3.59-0.02,7.2-0.31,10.82-0.25c14.18,0.29,28.39,0.31,42.53,1.18
	c7.14,0.42,14.18,2.36,21.23,3.86c2.74,0.6,4.91,2.32,4.42,5.64c-0.54,3.5-3.12,4.59-6.27,4.73c-1.23,0.04-2.5,0.16-3.64-0.18
	c-7.29-2.28-14.65-1.63-22.15-1.29c-6.91,0.33-13.92-1.05-20.88-0.98c-19,0.18-37.98,0.67-56.99,1.18
	c-2.88,0.07-5.71,0.96-8.54,1.47c-5.51,0.98-12.13-1.85-14.88-6.51c-1.78-3.08-2.07-6.31-0.76-9.7
	c7.72-20.14,11.82-41.1,14.88-62.36c1.36-9.28,4.04-18.36,5.8-27.59c2.12-11.08,3.79-22.28,5.78-33.39
	c2.07-11.6,4.28-23.2,6.47-34.77c1.65-8.74,3.23-17.49,5.02-26.18c3.06-14.85,6.11-29.69,9.37-44.47
	c3.01-13.65,5.95-27.19,6.47-41.31c0.67-17.06,3.48-34.03,4.35-51.07c0.98-19.96,0.96-39.99,1.12-59.97c0.07-5.4-1.23-6.38-6.6-5.95
	c-7.43,0.58-14.83,1.58-22.28,2.05c-5.51,0.33-11.06,0.18-16.57,0.09c-12.51-0.18-25.02-0.62-37.51-0.62
	c-11.33-0.02-22.64,0.62-33.97,0.58c-5.51,0-8.25,2.74-10.24,7.38c-5.11,11.95-10.37,23.84-15.7,35.69
	c-8.07,18-16.17,36.02-24.47,53.91c-6.07,13.09-12.69,25.94-18.76,39.03c-7.52,16.17-14.65,32.5-22.1,48.69
	c-6.22,13.54-12.67,27.01-19.09,40.48c-3.61,7.63-7.23,15.23-11.06,22.73c-9.3,18.2-18.76,36.31-28.1,54.51
	c-3.95,7.69-7.49,15.64-11.71,23.17c-3.99,7.14-8.56,13.94-12.94,20.83c-7.11,11.15-14.18,22.33-21.43,33.37
	c-3.84,5.82-8.21,11.26-12.02,17.08c-2.65,4.01-4.82,8.32-7.11,12.56c-3.03,5.66-7.83,7.49-13.14,4.04c-3.08-2.01-6.56-5-7.61-8.27
	c-5.69-17.62-15.97-32.79-24.85-48.71c-3.03-5.46-5.6-11.2-8.52-16.73c-2.81-5.31-5.8-10.51-8.74-15.75
	c-0.22-0.42-0.58-0.78-0.83-1.18c-1.69-2.92-3.86-5.91-1.18-9.26c1.87-2.36,7.4-2.63,10.75-0.04c3.39,2.61,6.53,5.75,9.08,9.21
	c2.81,3.86,5.02,8.21,7.07,12.56c5.35,11.31,10.77,22.55,18.29,32.67c2.43,3.26,3.88,7.23,6.11,10.64
	c3.19,4.93,6.74,5.13,10.28,0.51c3.66-4.77,6.98-9.79,10.44-14.72c6-8.65,12.33-17.08,17.84-26.05
	c6.53-10.62,12.45-21.61,18.42-32.56c4.8-8.88,9.32-17.89,13.94-26.9c8.1-15.86,16.3-31.63,24.15-47.62
	c9.75-19.85,19.23-39.86,28.7-59.86c3.28-6.96,5.98-14.21,9.35-21.14c6.71-13.85,13.78-27.52,20.56-41.33
	c3.41-6.91,6.49-13.98,9.7-20.99c7.94-17.51,15.95-34.99,23.75-52.55c4.01-9.03,7.78-18.15,11.4-27.32
	c2.1-5.33,3.68-10.84,5.49-16.26c0.16-0.47,0.31-0.94,0.56-1.34c8.1-12.51,13.05-26.47,17.53-40.48
	c5.44-16.93,9.37-34.35,14.5-51.41c4.8-15.84,5.22-32.27,7.85-48.4c3.75-22.86,5.38-45.9,7.47-68.89
	c1.49-16.55,1.52-33.21,1.99-49.83c0.11-4.88-1.7-8.03-7.18-10.01c-17.58-6.47-30.49-18.78-40.28-34.59
	c-1.47-2.32-3.64-4.53-6.02-5.89c-13.61-7.67-27.32-15.12-41.08-22.59c-16.86-9.17-33.81-18.27-50.7-27.43
	c-8.48-4.59-16.64-9.79-25.36-13.85c-17.22-8.05-34.68-15.52-52.1-23.19c-16.28-7.16-32.61-14.25-48.89-21.39
	c-4.24-1.83-5.6-1.23-6.38,3.34c-1.63,9.5-2.94,19.05-4.59,28.55c-0.87,4.97-2.45,9.81-3.23,14.81c-1.03,6.62-1.81,13.34-2.32,20.03
	c-0.58,7.43-4.01,9.41-10.3,5.53c-4.48-2.77-7.05-6.51-6.02-12.04c2.01-11.15,4.04-22.28,5.98-33.41c0.58-3.41,0.89-6.87,1.29-10.28
	c-0.49-0.25-1-0.49-1.49-0.74c-1.36,1.09-3.06,1.96-4.01,3.34c-10.19,14.3-22.79,26.81-31.07,42.51c-2.74,5.22-5.84,5.91-10.55,2.3
	c-7.29-5.6-7.38-6.13-2.1-14.14c6.62-10.04,14.3-19.36,21.57-28.95c4.66-6.16,9.48-12.16,14.07-18.33c1.47-1.96,2.45-4.3,3.88-6.8
	c-3.88-1.67-6.02,0.4-8.3,1.38c-12.8,5.51-25.4,11.6-38.43,16.55c-9.41,3.55-19.34,5.78-29.15,8.32
	C143.72,241.24,138.17,237.72,135,230.78 M506.6,630.33c3.88,0.49,6.65,1.16,9.39,1.14c14.68-0.04,29.44-1.27,44.05-0.11
	c14.03,1.11,27.83,0.6,41.68-1.18c5.96-0.78,11.91-1.74,17.82-2.85c4.88-0.96,5.42-2.14,4.73-6.98c-0.98-7.34-2.43-14.72-2.48-22.1
	c-0.04-11.82-0.54-23.53-2.72-35.15c-0.13-0.71-0.13-1.45-0.18-2.16c-1.36-22.82-2.07-45.7-4.26-68.43
	c-2.52-26.05-6.22-52.01-9.75-77.97c-1.72-12.62-4.13-25.16-6.36-37.72c-0.31-1.76-1.36-3.39-2.23-5.4
	c-10.77,3.66-21.37,2.56-31.92,2.59c-3.61,0.02-7.23-0.09-10.82,0c-5.06,0.13-5.71,0.8-6.04,5.89c-0.09,1.2,0.04,2.41,0.02,3.61
	c-0.6,22.13,0.11,44.29-3.08,66.33c-0.65,4.51-0.65,9.1-1.09,13.65c-0.83,8.36-1.67,16.73-2.63,25.07
	c-0.89,7.65-2.61,15.26-2.81,22.91c-0.31,14.14-4.46,27.41-7.54,40.99c-5.02,22.37-11.51,44.23-19.2,65.75
	C509.87,621.92,508.38,625.6,506.6,630.33 M587.6,354.3c-13.47,0.82-25.58,2.94-37.8,0.07c-23.71-5.58-38.9-19.98-46.08-43.05
	c-1.23-3.9,0.02-6.22,3.99-6.76c8.59-1.14,17.17-1.94,25.78-2.9c2.61-0.29,5.26-0.45,7.87-0.91c6.13-1.07,12.24-2.41,18.42-3.43
	c8.05-1.36,16.1-2.68,24.22-3.68c7.11-0.87,14.3-1.54,21.5-1.78c5.8-0.2,11.17,3.9,13.03,9.52c4.48,13.63,1.47,25.63-8.34,35.89
	c-4.42,4.57-9.17,8.81-14.92,14.3c2.97-0.71,4.44-0.8,5.66-1.4c8.32-3.92,15.84-8.45,21.05-16.73
	c8.63-13.72,13.54-28.08,11.71-44.43c-0.38-3.48-1.18-6.49-4.26-8.74c-3.66-2.7-7.05-5.78-10.66-8.57
	c-1.52-1.18-2.88-3.43-5.84-1.87c0.47,1.47,0.85,2.79,1.32,4.08c1.18,3.17,2.61,6.25,3.48,9.48c0.38,1.4,0.16,3.72-0.76,4.48
	c-0.78,0.67-3.48,0.31-4.37-0.58c-3.01-3.01-5.73-6.33-8.25-9.77c-1.49-2.03-2.41-4.48-3.68-6.94c-4.53,2.77-6,6.33-6.98,10.46
	c-1.09,4.66-3.14,5.26-7.25,2.59c-9.86-6.4-10.53-13.16-2.1-21.68c0.69-0.67,1.32-1.43,2.05-2.03c3.35-2.79,6.85-4.42,11.24-2.28
	c1.38,0.67,3.03,0.69,5.67,1.2c-1-1.98-1.27-3.48-2.01-3.77c-2.43-0.94-5-1.78-7.61-2.03c-16.75-1.65-33.21,0.36-49.27,5.09
	c-4.48,1.32-9.64,2.85-12.27,7.72c4.62,2.85,9.03,5.26,13.09,8.19c4.48,3.23,6.94,8.01,8.14,13.29c0.27,1.32-0.49,3.59-1.54,4.3
	c-0.96,0.65-3.21,0.2-4.44-0.56c-2.01-1.25-3.64-3.12-5.44-4.71c-4.48-3.99-7.65-3.12-9.39,2.63c-0.33,1.14-0.31,2.39-0.49,3.57
	c-0.74,4.48-3.32,6-6.87,3.55c-2.92-2.05-5.49-4.68-7.96-7.29c-2.03-2.1-2.19-4.66-0.78-7.34c1.18-2.27,2.21-4.64,3.86-8.16
	c-2.39,1.16-3.86,1.47-4.73,2.39c-11.49,11.82-18.58,25.83-19.14,42.44c-0.29,8.05,2.25,16.21,6.91,22.41
	c4.8,6.38,11.55,11.89,19.63,14.18c7.83,2.23,15.88,4.1,23.98,4.82c8.56,0.76,17.26-0.13,25.92-0.09
	C577.9,359.52,582.38,358.29,587.6,354.3 M554.97,342.61c3.86-0.31,7.92-0.62,11.98-0.96c17.11-1.43,31.83-12.91,36.89-28.73
	c1.78-5.53-0.16-7.94-5.78-7.07c-8.48,1.34-16.95,2.85-25.43,4.13c-12.56,1.87-25.14,3.55-37.67,5.4c-2.85,0.4-5.71,0.96-8.45,1.78
	c-4.3,1.29-5.04,2.68-3.41,6.91c3.52,9.03,9.1,15.86,19.45,17.17C546.59,341.77,550.67,342.14,554.97,342.61"/>
<path class="st22" d="M723.46,890.7c1.72-3.93,3.64-9.37,6.4-14.36c10.17-18.42,24.98-32.72,41.06-45.94
	c8.52-6.98,18.47-11.15,28.01-16.21c3.84-2.03,7.69-2.16,11.84-0.94c3.7,1.09,5.96,3.26,6.38,6.96c0.78,7.49,3.97,13.67,8.99,19.23
	c5.78,6.42,11.04,13.29,16.66,19.85c3.46,4.06,2.94,6.67-2.12,8.45c-1.81,0.65-3.72,0.98-5.58,1.45
	c-16.17,4.01-27.5,14.36-35.86,28.19c-1.87,3.12-2.39,7.16-3.19,10.86c-0.45,2.07,0.13,4.39-0.4,6.45c-2.25,8.3,1,15.64,3.86,22.97
	c1.09,2.79,2.81,5.31,0.38,7.94c-2.36,2.56-5.33,2.01-8.01,0.6c-4.44-2.34-8.81-4.88-13.09-7.47
	c-15.43-9.32-30.64-18.91-46.21-27.92C725.09,906.45,724.49,899.51,723.46,890.7 M822.29,853.9c-1.56-2.56-2.48-4.57-3.86-6.18
	c-3.88-4.57-7.85-9.1-12-13.43c-4.71-4.95-5.73-5.04-11.87-2.03c-1.72,0.82-3.41,1.81-5,2.9c-15.92,10.77-29.15,24.4-40.19,39.99
	c-4.17,5.93-6.16,13.43-9.12,20.23c-1.92,4.37,0,7.43,3.55,9.81c3.79,2.56,7.58,5.15,11.51,7.49c4.75,2.85,9.55,5.66,14.47,8.12
	c4.33,2.1,6.85,0.78,7.96-3.9c0.54-2.3,0.67-4.75,0.71-7.16c0.16-14.05,5.87-25.56,16.04-35.06c6.87-6.4,13.38-13.14,22.7-16.19
	C819.12,857.85,820.52,855.57,822.29,853.9"/>
<path class="st22" d="M424.57,145.08c1.38-0.09,2.79-0.29,4.15-0.25c3.3,0.07,6.8,1.76,9.72-0.94c3.66-3.39,7.65-6.62,10.55-10.62
	c2.63-3.64,4.19-8.1,5.87-12.31c0.87-2.16,1.2-4.64,1.36-7c0.33-4.53,0.2-9.1,0.6-13.65c0.31-3.37-0.78-5.4-3.86-6.87
	c-2.92-1.38-5.58-3.35-9.5-5.73c6.27-4.44,11.53-8.07,16.73-11.84c2.83-2.07,6.18-3.92,8.19-6.69c1.96-2.72,3.88-3.19,6.69-2.59
	c5.51,1.18,8.79,3.64,10.62,9.88c3.1,10.53,7.81,20.65,12.38,30.71c3.26,7.2,5.09,14.47,4.64,22.35c-0.16,2.63-0.65,5.31-0.33,7.92
	c1.32,11.64-2.88,21.08-10.84,29.33c-3.66,3.79-6.51,8.39-10.21,12.11c-3.86,3.9-7.98,7.78-12.6,10.64
	c-9.19,5.69-18.69,10.93-28.3,15.84c-5.95,3.03-15.05,0.49-18.76-4.64c-0.71-0.96-1.05-2.94-0.54-3.95
	c8.3-16.28,6.42-33.1,2.9-50.03C423.99,146.53,424.15,146.28,424.57,145.08 M443.98,185.78c0.91,0.22,1.49,0.58,1.81,0.42
	c6.96-3.75,14.45-6.65,19.65-13c5.02-6.13,9.72-12.58,15.19-18.33c5.4-5.71,7.05-12.36,7.03-19.78c0-2.19-0.18-4.37,0.13-6.51
	c2.21-15.59-6.89-27.57-12.94-40.48c-1.41-2.97-3.7-2.54-5.42,0.13c3.61,8.59,3.55,8.59,2.48,18.76c-0.36,3.34-0.36,6.71-0.4,10.08
	c-0.11,9.99-5.11,18.36-8.99,27.08c-0.29,0.65-0.87,1.18-1.45,1.6c-4.86,3.46-9.57,7.18-14.7,10.19c-3.41,1.98-4.77,4.37-4.53,8.14
	c0.45,6.22,0.74,12.44,1.18,18.67C443.09,183.86,443.69,184.93,443.98,185.78"/>
<path class="st22" d="M735.52,592.95c5.02-0.27,10.1-0.27,15.1-0.89c5.53-0.69,9.9,1.49,13.92,4.75c2.56,2.07,2.74,4.88-0.02,6.62
	c-5.04,3.19-6.42,8.12-7.96,13.23c-1.81,6-3.97,11.87-5.67,17.89c-0.65,2.25-0.74,4.71-0.67,7.07c0.09,3.37,0.74,6.71,0.76,10.08
	c0.02,4.77,1.74,8.7,4.48,12.62c3.17,4.57,6.91,7.43,12.29,9.14c8.01,2.52,15.55,6.22,23.95,7.72c3.08,0.53,6.07,2.81,8.61,4.91
	c3.52,2.92,3.39,6.29-0.71,7.85c-11.82,4.44-19.09,15.37-30.31,20.59c-1.85,0.85-3.21,2.85-4.59,4.53
	c-2.99,3.64-6.8,4.77-10.95,2.74c-6.2-3.06-12.2-6.6-18.2-10.04c-0.78-0.45-1.56-1.32-1.83-2.16c-1.9-6.09-6.71-9.86-10.88-14.16
	c-7.49-7.67-10.53-17.62-13.78-27.46c-5.35-16.17-5.75-32.59-2.79-49.18c0.8-4.46,2.59-8.74,3.9-13.11
	c0.56-1.83,1.34-3.59,1.63-5.44c0.98-5.71,1.34-6.51,7.16-7.03c5.46-0.49,11.04-0.11,16.55-0.11
	C735.52,593.06,735.52,593.02,735.52,592.95 M740.02,606.62c-7.76-1.83-9.32-1.27-12.98,3.77c-3.48,4.82-4.97,10.22-5.6,16.08
	c-1.25,11.22-2.92,22.39,0.49,33.54c1.14,3.66,2.21,7.36,3.06,11.13c3.1,14.01,11.13,24.76,21.75,33.99
	c2.14,1.87,4.06,2.48,6.45,1.11c7.52-4.26,15.28-8.23,20.92-15.05c0.96-1.18,1.36-2.86,2.36-5.04c-3.61-1.34-6.67-2.59-9.79-3.59
	c-11.37-3.7-21.14-10.04-26.9-20.5c-6.47-11.73-7.83-24.53-3.3-37.63C738.44,618.83,740.49,613.14,740.02,606.62"/>
<path class="st22" d="M245.58,591.99c11.87,1.7,21.83-3.01,31.98-8.54c9.39-5.11,14.68-13.63,21.12-21.26
	c1.27-1.54,1.7-3.92,2.14-5.98c0.94-4.24,1.61-8.52,2.43-12.78c0.49-2.52,1.56-4.5,4.64-4.57c5.06-0.07,11.11,4.75,11.66,9.84
	c1.25,10.95,2.3,21.97,3.37,32.94c0.49,5.26,0.67,10.55,1.32,15.79c0.74,6.18-0.51,11.64-3.03,17.42
	c-4.48,10.39-10.86,19.16-19.29,26.52c-2.3,2.03-4.84,4.08-7.61,5.33c-10.73,4.84-21.54,9.52-32.5,13.92
	c-5.66,2.3-11.58,3.21-17.35-0.25c-3.26-1.98-5.09-4.51-5.66-8.56c-1.85-13.29-4.19-26.54-6.36-39.79
	c-0.71-4.51-1.61-9.03-1.99-13.56c-0.36-4.44,1.34-6.2,5.75-6.45C239.34,591.86,242.46,591.99,245.58,591.99 M304.91,584.28
	c-2.39,1.54-4.28,2.88-6.31,3.99c-7.61,4.15-14.94,8.92-22.95,12.04c-5.89,2.3-12.62,2.74-19.05,3.43
	c-6.56,0.71-7.94,1.94-7.38,8.54c0.07,0.96,0.27,1.92,0.4,2.88c1.43,8.3,2.79,16.62,4.28,24.89c1.03,5.53,4.06,7.14,9.5,4.93
	c6.67-2.7,13.29-5.55,19.83-8.63c2.14-0.98,3.99-2.7,5.73-4.33c8.23-7.74,14.16-17.06,17.87-27.63
	C309.1,597.93,308.75,591.28,304.91,584.28"/>
<path class="st22" d="M251.37,723.79c2.74,1.07,6.02,1.96,8.9,3.52c4.35,2.41,4.59,3.77,3.64,8.85
	c-2.16,11.53,0.76,22.62,7.29,31.43c5.58,7.56,14.43,12.49,24.91,12.65c4.51,0.07,9.17,0.62,13.47,1.87
	c8.97,2.63,12.24,11.6,7.29,19.43c-4.39,6.89-9.55,13.29-13.81,20.27c-4.24,6.94-7.92,14.25-11.55,21.54
	c-2.63,5.26-4.17,6.11-9.48,3.99c-1.54-0.62-3.14-1.27-4.55-2.16c-9.52-6.02-19.09-11.95-28.41-18.24
	c-7.83-5.31-12.62-13.18-16.33-21.61c-7.78-17.73-13.52-36-12.8-55.74c0.07-1.67-0.09-3.37-0.33-5.02
	c-1.05-7.27-1.12-7.34,5.17-10.35c6.02-2.92,12.11-5.8,18.29-8.41C245.46,724.79,248.18,724.53,251.37,723.79 M242.16,742.12
	c-1,1.03-3.06,2.21-3.7,3.93c-1.16,3.08-2.03,6.49-2.05,9.77c-0.07,19.38,5.8,37.36,14.27,54.49c4.22,8.56,10.71,15.23,19.85,18.98
	c3.41,1.38,6.04,1.09,8.12-2.14c0.89-1.4,1.99-2.72,2.9-4.13c4.26-6.65,8.52-13.31,12.78-19.98c1.41-2.23,2.94-4.39,4.06-6.76
	c1.09-2.32,0.36-4.24-2.25-5.13c-1.14-0.38-2.28-0.78-3.39-1.16c-11.87-3.75-22.59-9.57-31.85-17.8c-3.3-2.94-5.98-6.85-8.03-10.8
	c-2.05-3.99-2.94-8.56-4.39-12.87C247.56,745.76,246.64,742.99,242.16,742.12"/>
<path class="st22" d="M706.51,293.7c5.06-1.25,10.06-1.98,14.63-3.75c3.72-1.45,7.18-3.84,10.35-6.33c7.05-5.53,17.49-2.72,20.12,6
	c3.72,12.4,7.87,24.78,10.15,37.47c1.72,9.59,1.36,19.72,0.78,29.53c-0.51,9.32-2.3,18.62-3.95,27.86
	c-1.58,8.99-3.97,17.82-5.46,26.83c-0.96,5.89-3.95,6.22-8.1,4.46c-5.53-2.36-10.88-5.11-16.39-7.52
	c-5.69-2.5-11.44-4.93-17.24-7.16c-8.74-3.39-17.58-6.6-26.36-9.88c-0.45-0.16-0.87-0.38-1.32-0.62c-6.94-3.88-7.23-6.58-0.94-11.53
	c2.63-2.07,5.42-4.08,8.36-5.66c10.77-5.84,16.01-16.37,22.06-26.14c1.29-2.05,1.47-5.11,1.36-7.67
	c-0.6-14.68-1.05-29.42-8.16-42.87c-0.31-0.6-0.29-1.4-0.25-2.12C706.15,294.16,706.49,293.74,706.51,293.7 M698.61,387.41
	c2.72,1.23,4.35,2.25,6.13,2.74c9.14,2.39,17.84,5.69,26.12,10.3c6.22,3.46,7.61,2.88,9.37-4.3c1.65-6.74,2.12-13.76,3.5-20.59
	c2.7-13.25,3.79-26.61,4.17-40.12c0.33-12.04-3.57-23.22-5.69-34.77c-0.11-0.6-0.8-1.11-1.25-1.67c-1.2,0.18-2.19,0.18-3.06,0.49
	c-2.74,0.94-5.44,1.96-8.16,2.97c-6.27,2.39-5.84,2.34-5.06,8.81c1.32,10.97,2.27,22.01,2.85,33.03c0.2,3.72-0.22,8.19-2.14,11.17
	c-6.53,10.21-11.62,21.77-23.08,27.99C701.16,384.09,700.4,385.45,698.61,387.41"/>
<path class="st22" d="M797.37,545.03c0-1.92-0.07-3.86,0-5.78c0.22-8.48,2.59-15.21,12.11-17.8c3.72-1,6.76-4.42,10.17-6.65
	c3.41-2.27,6.78-4.62,10.33-6.65c6.42-3.7,11.11-3.01,15.92,2.45c1.16,1.29,1.96,3.43,1.92,5.15c-0.09,3.32-0.45,6.78-1.56,9.9
	c-2.56,7.12-2.45,14.12-0.27,21.23c1.58,5.04,3.37,10.01,4.82,15.1c0.98,3.37,3.23,5.51,6.33,6.38c7.85,2.21,15.84,3.88,23.69,6.16
	c3.86,1.14,7.74,2.72,11.08,4.88c3.84,2.48,4.1,6.27,0.45,9.01c-10.88,8.3-18.71,19.34-27.54,29.48c-3.12,3.61-5.64,7.76-8.68,11.46
	c-4.48,5.49-7.05,6.07-13.03,2.32c-19.85-12.53-33.74-29.71-39.97-52.64C800.09,567.91,797.2,556.73,797.37,545.03 M871.47,584.21
	c-6.31-2.63-11.44-4.57-16.39-6.85c-10.26-4.71-18.22-11.29-20.5-23.31c-1.29-6.8-3.84-13.38-5.8-20.05
	c-0.58-2.01-1.43-3.63-3.93-3.28c-4.88,0.65-10.55,5.78-11.46,10.66c-0.56,3.03-1.03,6.18-0.96,9.28
	c0.27,12.62,2.81,24.89,7.07,36.69c3.59,9.97,8.92,19.11,16.35,26.88c4.86,5.09,7,5.04,11.53-0.29c6.53-7.67,13.16-15.3,19.63-23.02
	C868.5,589.16,869.59,587.07,871.47,584.21"/>
<path class="st22" d="M734.87,499.97c7.03,1.29,14.1,2.52,21.14,3.95c1.58,0.33,3.12,1.25,4.55,2.14c4.88,3.03,4.8,5.17,0.02,8.14
	c-2.23,1.38-4.53,2.83-6.29,4.73c-7.74,8.27-15.37,16.64-22.86,25.11c-5.13,5.84-7.11,6.65-14.34,3.5
	c-8.19-3.55-16.73-6.56-24.15-11.33c-7.2-4.59-13.78-10.57-19.47-16.97c-8.72-9.72-15.79-20.68-19.23-33.57
	c-0.67-2.56-1.29-5.15-1.67-7.76c-2.07-14.1,2.74-25.09,15.32-32.18c7.11-4.01,14.27-8.01,21.77-11.22
	c3.03-1.32,7.18-1.38,10.44-0.51c6.94,1.87,8.3,5.02,5.69,11.73c-3.52,9.1-5.24,18.33-4.86,28.19c0.6,14.76,4.8,21.14,18.82,25.25
	c4.77,1.38,9.86,1.72,14.79,2.54C734.65,501.13,734.76,500.55,734.87,499.97 M735.38,512.64c-4.1-1.18-7.05-1.96-9.97-2.9
	c-5.46-1.78-11.08-3.26-16.33-5.6c-16.19-7.2-25.74-18.94-24.56-37.6c0.13-2.16,0.22-4.35,0.04-6.47c-0.16-1.56-0.87-3.05-1.43-4.86
	c-1.36,0.42-2.32,0.53-3.08,1c-10.33,6.4-13.54,15.34-11.04,27.95c3.5,17.53,13.69,31.02,26.12,43.05
	c3.01,2.92,7.11,4.88,10.97,6.71c5.4,2.54,10.28,1.18,14.32-3.19c3.9-4.24,7.85-8.45,11.69-12.78
	C733.15,516.74,733.84,515.21,735.38,512.64"/>
<path class="st22" d="M107.13,720.09c-12.2-0.89-24.44-1.47-36.58-2.85c-5.64-0.62-8.79-5.53-11.51-10.06
	c-0.56-0.91,0.09-2.77,0.58-4.04c0.71-2.05,1.67-4.01,2.7-5.89c3.35-6.09,4.77-12.56,4.35-19.47c-0.11-1.92-0.16-3.86,0.04-5.78
	c0.45-4.77,1.78-5.82,6.49-5.29c2.63,0.31,5.22,0.74,7.87,1.03c13.87,1.49,25.92-2.94,37.16-10.84c7.27-5.11,14.74-9.64,20.32-16.95
	c4.75-6.27,15.9-3.52,20.34,4.39c0.36,0.62,0.74,1.27,0.89,1.96c2.81,12.65,10.08,23.28,15.88,34.57c1.98,3.88,1.43,7.03-1.16,9.9
	c-2.39,2.65-5.04,5.22-7.94,7.29c-7.07,5-14.32,9.72-21.55,14.45c-5.58,3.61-11.75,5.58-18.38,5.75
	c-6.47,0.18-12.96,0.04-19.45,0.04C107.17,718.93,107.15,719.51,107.13,720.09 M86.3,707.53c6.29-0.4,10.62-0.76,14.92-0.94
	c4.55-0.18,9.12-0.07,13.67-0.33c8.92-0.51,16.75-3.86,23.89-9.14c4.97-3.72,10.13-7.25,15.08-11.02c1.9-1.43,3.86-3.03,5.09-5
	c0.87-1.4,1.27-3.84,0.67-5.29c-1.78-4.19-3.93-8.27-6.42-12.07c-2.63-3.95-5.93-4.37-9.99-1.98c-6.82,3.99-13.58,8.12-20.43,12.02
	c-2.48,1.43-5.06,2.88-7.81,3.57c-7.87,1.96-15.75,4.33-24.09,3.52c-4.24-0.4-6.85,1.96-7.96,5.82c-1.03,3.43-1.72,6.98-2.54,10.48
	C78.67,704.48,80.99,707.51,86.3,707.53"/>
<path class="st22" d="M519.09,117.86c3.23-5.24,8.03-8.85,12.96-12.24c6.56-4.48,13.23-8.81,19.87-13.16
	c5.04-3.3,13.56-1.45,17.2,3.39c9.52,12.76,16.82,26.85,24.85,40.5c1.92,3.26,3.37,7.05,3.99,10.75c2.1,12.58,4.19,25.16-0.78,37.71
	c-2.19,5.51-5.02,10.33-9.46,14.25c-3.61,3.19-7.03,6.49-7.9,11.69c-0.51,3.05-3.12,4.66-5.96,3.9c-4.77-1.29-9.64-2.03-13.65-5.91
	c-5.51-5.31-11.64-10.08-18.02-14.39c-3.23-2.18-7.52-2.88-11.35-4.24c-1.36-0.47-2.9-0.62-4.1-1.36c-1.32-0.82-3.17-2.05-3.28-3.28
	c-0.13-1.18,1.34-3.15,2.59-3.75c6.78-3.28,11.17-8.81,15.63-14.61c2.99-3.9,4.22-7.94,2.56-12.07
	c-3.39-8.45-6.85-17.04-11.66-24.71C529.58,125.53,524.07,122.3,519.09,117.86 M547.26,185.02c6.98,5.11,13.11,9.59,20.03,14.68
	c4.59-5.53,10.01-10.06,12.82-15.86c6.71-13.92,4.53-28.57,1-43.02c-0.29-1.14-0.94-2.23-1.56-3.23
	c-5.35-9.12-10.66-18.27-16.19-27.28c-1.45-2.34-3.57-4.28-5.69-6.78c-5.84,4.17-11.2,7.74-16.28,11.71
	c-3.28,2.59-3.55,4.91-0.67,7.09c11.02,8.43,14.39,21.32,19.34,33.17c2.32,5.49,1.09,11.22-2.97,16.15
	C553.77,175.67,550.87,180.06,547.26,185.02"/>
<path class="st22" d="M46.06,867.22c-7.16,0.13-12.85-3.52-14.5-9.21c-1.34-4.59-2.03-9.41-2.61-14.16
	c-0.94-7.65-1.58-15.3-2.25-22.97c-0.18-1.9-0.36-3.88,0.02-5.71c0.65-3.14,3.26-3.97,6.09-3.99c8.45-0.11,15.79-3.52,23.17-7.25
	c9.41-4.73,18.33-10.53,28.79-13.27c5.38-1.43,10.37-1.96,15.52-0.16c5.17,1.78,9.64,1.25,14.25-2.1c6.91-5.02,14.25-1.43,15.7,7.16
	c1.12,6.87,2.03,13.83,3.88,20.52c1.36,5.02,3.41,10.15,6.36,14.41c3.88,5.62,1.07,8.03-3.55,9.59c-4.3,1.49-8.68,2.83-13.03,4.28
	c-14.9,5.02-30.04,8.45-45.92,8.34c-2.94-0.02-6.09,1.34-8.79,2.72c-6.18,3.19-12.13,6.89-18.27,10.17
	C49.09,866.59,46.91,866.93,46.06,867.22 M45.39,832.85c-0.13,2.3-0.31,3.73-0.29,5.15c0.11,7.94,4.22,10.75,11.02,7.03
	c4.86-2.63,9.97-3.28,15.23-3.66c4.1-0.27,8.16-0.56,12.27-0.62c11.87-0.16,22.37-5.15,33.05-9.39c4.86-1.92,5.15-3.28,3.97-8.45
	c-1-4.46-2.05-8.9-3.26-13.29c-1.58-5.62-4.73-8.41-10.3-8.25c-5.98,0.18-11.84,0.78-17.55,3.3c-13.38,5.89-25.51,14.52-39.9,18.29
	c-3.3,0.87-5.15,3.41-4.55,7.16C45.26,831.31,45.35,832.49,45.39,832.85"/>
<path class="st22" d="M993.1,892.21c-3.46-1.23-8.97-2.86-14.18-5.15c-4.39-1.92-8.27-4.97-12.65-6.89
	c-5.49-2.39-11.2-4.37-16.93-6.09c-20.56-6.11-31.74-21.19-39.03-40.23c-1.49-3.93-3.66-7.78-6.16-11.15
	c-4.22-5.66-4.44-11.17,0.58-16.04c8.79-8.56,19.69-13.67,30.91-18.09c4.84-1.87,12.07,2.21,14.65,8.03
	c1.83,4.15,3.28,8.61,3.97,13.07c1.78,11.2,12.85,22.28,26.16,22.91c10.95,0.51,21.9,1.74,32.85,2.81c8.68,0.85,11.75,7.9,6.6,14.88
	c-0.56,0.76-1.14,1.54-1.85,2.21c-8.43,8.32-12.16,18.78-13.76,30.27C1003.43,888.82,1000.17,892.08,993.1,892.21 M982.24,876.85
	c4.3-0.16,5.82-1.45,7.25-5.64c2.01-5.89,3.77-11.86,6.04-17.62c2.03-5.17,1.14-6.47-4.42-7.36c-7.98-1.27-16.26-1.78-23.46-6.2
	c-12.04-7.36-23.11-15.68-28.5-29.46c-1.25-3.23-3.46-4.91-6.69-3.3c-3.81,1.92-7.43,4.31-11,6.69c-2.25,1.52-2.74,3.5-1.54,6.24
	c2.54,5.95,4.59,12.09,7.05,18.07c4.17,10.15,9.26,19.76,19.94,24.47c10.33,4.53,20.88,8.61,31.31,12.85
	C979.77,876.2,981.39,876.58,982.24,876.85"/>
<path class="st22" d="M584.72,212.77c3.5-2.39,3.93-5.33,3.39-8.99c-0.69-4.75-0.49-9.61-0.8-14.41c-0.8-11.4-3.46-22.24-8.21-32.72
	c-2.65-5.87-4.06-12.31-6.13-18.47c-1.78-5.24-3.46-10.53-8.25-14.1c-0.76-0.53-0.87-1.98-1.52-3.59c3.06-0.56,5.6-0.91,8.1-1.49
	c7.74-1.76,14.07-6.11,20.03-11.06c4.77-3.97,9.72-5.55,15.92-3.39c3.93,1.36,6.89,3.06,8.3,7.14c0.78,2.25,1.98,4.44,3.46,6.31
	c8.25,10.75,12.47,23.22,15.57,36.2c0.25,1.16,0.18,2.54,0.78,3.48c4.97,7.78,4.35,16.55,4.64,25.18c0.2,6.49,0.71,12.94,0.85,19.4
	c0.04,2.14-0.58,4.28-1.09,6.36c-0.6,2.54-2.07,4.15-4.86,4.64c-8.03,1.45-16.01,3.1-24.02,4.71c-2.12,0.42-4.26,0.85-6.31,1.49
	C595.73,222.2,591.7,221,584.72,212.77 M604.61,206.74c7.09,0.47,12.04-2.27,16.95-4.59c1.54-0.74,3.1-3.41,3.06-5.17
	c-0.29-11.73-0.98-23.46-1.63-35.19c-0.04-0.69-0.45-1.36-0.67-2.05c-2.45-7.76-5-15.48-7.34-23.28c-2.12-7.03-6.11-12.8-10.82-18.2
	c-6.02,3.46-11.71,6.51-17.08,10.01c-1.14,0.74-1.92,3.46-1.52,4.84c2.72,8.7,5.69,17.31,8.77,25.87
	c3.66,10.17,7.54,20.21,7.96,31.27C602.47,195.64,603.76,201.04,604.61,206.74"/>
<path class="st22" d="M349.5,455.14c0.36-5.78,0.71-11.53,1.07-17.29c0.62-10.35,6.94-18.29,11.64-26.85
	c2.16-3.95,4.82-4.01,10.79-1.56c4.84,2.01,5.6,3.41,5.15,8.05c-0.65,7.16-1.32,14.36-1.54,21.54c-0.2,6.74,2.88,12.6,6.11,18.27
	c1.96,3.43,5.51,3.59,8.94,3.28c5.84-0.56,11.55-0.13,17.02,2.14c6.42,2.72,7.11,4.24,5.26,11.06c-4.19,15.66-4.48,31.31-0.13,47.04
	c0.83,3.01,1.58,6.07,1.98,9.17c0.71,5.11-1.85,7.2-6.8,5.69c-4.37-1.34-8.07-4.17-9.28-8.43c-1.72-6.13-6.29-8.43-11.15-11.33
	c-8.21-4.91-16.88-9.66-23.69-16.21c-10.28-9.88-13.96-23.26-14.9-37.34c-0.16-2.39-0.02-4.79-0.02-7.2
	C349.81,455.16,349.68,455.14,349.5,455.14 M367.01,458.55c-2.54,15.14,2.97,26.59,9.37,37.38c3.57,6.02,9.97,9.68,17.22,11.75
	c0.62-1.78,1.16-2.68,1.18-3.55c0.13-8.85,0.11-17.71,0.25-26.54c0.07-3.19-1.25-4.91-4.42-5.42c-6.85-1.09-12.47-4.73-17.69-9.03
	C371.49,461.94,369.99,460.87,367.01,458.55"/>
<path class="st22" d="M206.11,329.4c1.56-0.85,2.32-1.63,3.14-1.67c13.52-0.87,26.96-0.78,39.63,5.02c0.87,0.4,1.87,0.71,2.56,1.34
	c8.81,8.36,18.82,15.54,24.47,27.01c3.28,6.69,6.85,12.98,8.45,20.47c2.77,12.65,0.16,23.69-7.34,33.9
	c-2.83,3.86-5.44,7.85-8.39,11.6c-2.41,3.08-5.82,3.59-9.03,1.6c-4.08-2.47-8.34-4.95-11.66-8.3c-8.9-9.03-19.07-15.14-31.87-16.64
	c-5.38-0.62-10.15-3.79-14.07-8.39c2.99-3.77,7.72-3.9,11.62-4.44c17.58-2.5,22.84-25.54,14.56-36.89
	c-5.42-7.4-10.57-14.85-18.13-20.3C208.65,332.7,207.64,331.12,206.11,329.4 M258.43,412.48c8.01-7.67,11.62-16.97,10.53-27.48
	c-1.98-18.94-11.2-34.01-26.43-45.34c-2.5-1.85-5.42-3.06-8.9-0.4c0.74,1.58,1.25,3.12,2.1,4.44c3.28,5.04,6.51,10.1,10.01,14.97
	c2.34,3.3,3.14,6.8,3.28,10.8c0.31,9.79-3.57,17.73-9.92,24.78c-1.49,1.65-2.74,3.5-4.39,5.62
	C243.02,404.28,250.38,408.2,258.43,412.48"/>
<path class="st22" d="M484.82,403.76c-0.38,6.22-0.91,12.47-1.05,18.71c-0.18,7.85,1.23,15.35,6,21.88
	c0.71,0.96,1.49,1.94,1.94,3.03c2.99,7.34,8.41,11.49,16.19,12.74c1.38,0.22,2.77,0.85,4.01,1.56c3.95,2.3,4.3,4.82,0.89,7.94
	c-5.51,5.02-11.46,9.59-16.77,14.76c-3.57,3.5-6.62,7.58-9.48,11.69c-2.01,2.9-3.57,5.87-7.72,5.35c-4.24-0.54-8.59-1.9-9.99-6.09
	c-1.99-6-6.04-10.24-9.86-14.88c-2.27-2.79-4.39-5.84-5.84-9.12c-7.32-16.64-12.58-33.81-13.2-52.19c-0.11-3.03-0.76-6.22-1.94-9.01
	c-1.16-2.79-0.58-4.51,1.52-6.29c9.28-7.85,20.01-12.56,31.98-13.83c3.59-0.36,7.58,1.25,11.04,2.76c1.43,0.62,2.34,3.32,2.68,5.24
	c0.31,1.81-0.4,3.79-0.69,5.71C484.64,403.73,484.73,403.73,484.82,403.76 M492.29,464.35c-0.38-0.78-0.49-1.29-0.8-1.63
	c-0.62-0.69-1.29-1.52-2.12-1.94c-8.1-4.1-11.4-12.18-15.68-19.29c-4.33-7.2-5.67-15.21-5.35-23.62c0.16-4.13,1.29-8.61-1.63-12.36
	c-8.07,2.01-11.69,7.18-11.37,15.99c0.45,12.36,2.39,24.44,6.69,36.06c2.41,6.51,5.11,12.98,8.3,19.16c2.27,4.44,4.86,4.5,8.63,1.16
	c3.77-3.32,7.52-6.71,11.15-10.19C491.08,466.74,491.64,465.36,492.29,464.35"/>
<path class="st23" d="M506.6,630.32c1.78-4.71,3.26-8.39,4.59-12.11c7.69-21.54,14.18-43.4,19.2-65.77
	c3.08-13.58,7.23-26.85,7.54-40.99c0.2-7.65,1.92-15.25,2.81-22.88c0.96-8.34,1.81-16.7,2.63-25.07c0.45-4.57,0.45-9.17,1.09-13.67
	c3.19-22.04,2.48-44.21,3.08-66.33c0.02-1.2-0.11-2.41-0.02-3.61c0.33-5.08,0.98-5.75,6.02-5.89c3.61-0.09,7.23,0.02,10.84,0
	c10.53-0.02,21.14,1.07,31.89-2.59c0.89,2.01,1.94,3.64,2.25,5.4c2.23,12.56,4.64,25.09,6.36,37.71c3.5,25.96,7.2,51.92,9.75,77.97
	c2.19,22.73,2.9,45.61,4.26,68.43c0.04,0.71,0.04,1.45,0.18,2.16c2.19,11.62,2.68,23.33,2.72,35.17c0.04,7.36,1.49,14.74,2.48,22.08
	c0.69,4.84,0.16,6.02-4.75,6.98c-5.89,1.14-11.84,2.07-17.8,2.85c-13.85,1.78-27.66,2.3-41.68,1.18
	c-14.61-1.16-29.37,0.07-44.05,0.11C513.24,631.48,510.48,630.81,506.6,630.32"/>
<path class="st23" d="M587.6,354.3c-5.22,3.99-9.7,5.22-14.7,5.18c-8.65-0.04-17.35,0.87-25.92,0.09
	c-8.1-0.71-16.15-2.59-23.98-4.79c-8.07-2.32-14.83-7.83-19.63-14.21c-4.66-6.2-7.2-14.36-6.91-22.41
	c0.56-16.62,7.65-30.62,19.14-42.44c0.89-0.89,2.34-1.23,4.73-2.39c-1.65,3.52-2.68,5.89-3.84,8.16c-1.43,2.68-1.27,5.24,0.76,7.34
	c2.48,2.61,5.04,5.24,7.96,7.29c3.55,2.45,6.16,0.94,6.87-3.55c0.2-1.18,0.18-2.43,0.49-3.57c1.74-5.75,4.91-6.62,9.39-2.63
	c1.81,1.58,3.43,3.46,5.44,4.71c1.23,0.76,3.48,1.2,4.44,0.56c1.05-0.71,1.83-2.99,1.54-4.3c-1.2-5.29-3.66-10.06-8.12-13.29
	c-4.08-2.92-8.5-5.33-13.11-8.18c2.63-4.86,7.78-6.4,12.27-7.72c16.06-4.71,32.52-6.74,49.27-5.09c2.61,0.25,5.17,1.09,7.61,2.03
	c0.74,0.29,1,1.78,2.01,3.77c-2.63-0.51-4.28-0.54-5.66-1.18c-4.39-2.16-7.9-0.54-11.24,2.25c-0.74,0.6-1.36,1.36-2.05,2.03
	c-8.41,8.52-7.76,15.28,2.1,21.7c4.1,2.65,6.16,2.05,7.25-2.61c0.98-4.13,2.45-7.69,6.98-10.46c1.29,2.45,2.21,4.91,3.68,6.94
	c2.52,3.44,5.24,6.76,8.25,9.77c0.89,0.89,3.59,1.25,4.37,0.58c0.91-0.76,1.14-3.08,0.78-4.48c-0.89-3.23-2.32-6.31-3.5-9.48
	c-0.47-1.29-0.85-2.61-1.32-4.08c2.99-1.56,4.33,0.69,5.84,1.87c3.64,2.79,7,5.89,10.66,8.57c3.08,2.25,3.88,5.29,4.26,8.74
	c1.83,16.35-3.08,30.71-11.71,44.43c-5.2,8.3-12.74,12.8-21.05,16.73c-1.23,0.6-2.68,0.69-5.67,1.4c5.78-5.49,10.5-9.72,14.92-14.3
	c9.81-10.26,12.82-22.26,8.34-35.89c-1.85-5.62-7.23-9.72-13.03-9.52c-7.2,0.25-14.39,0.91-21.5,1.78c-8.1,1-16.17,2.32-24.22,3.68
	c-6.16,1.03-12.29,2.36-18.42,3.44c-2.59,0.47-5.26,0.62-7.87,0.91c-8.61,0.96-17.2,1.76-25.78,2.92c-3.97,0.51-5.2,2.83-3.99,6.74
	c7.2,23.06,22.37,37.47,46.08,43.05C562.04,357.24,574.13,355.12,587.6,354.3"/>
<path class="st23" d="M554.97,342.61c-4.3-0.47-8.39-0.85-12.42-1.36c-10.35-1.32-15.92-8.14-19.45-17.17
	c-1.63-4.24-0.89-5.62,3.41-6.91c2.74-0.82,5.6-1.38,8.45-1.78c12.53-1.85,25.11-3.52,37.67-5.4c8.48-1.27,16.95-2.79,25.43-4.13
	c5.62-0.87,7.56,1.54,5.78,7.07c-5.06,15.81-19.78,27.3-36.89,28.73C562.89,341.99,558.83,342.3,554.97,342.61"/>
<path class="st39" d="M822.29,853.9c-1.76,1.67-3.17,3.95-5.09,4.6c-9.32,3.06-15.84,9.79-22.7,16.19
	c-10.17,9.5-15.88,21.01-16.04,35.06c-0.04,2.41-0.18,4.86-0.71,7.16c-1.12,4.68-3.64,6-7.96,3.9c-4.93-2.45-9.72-5.26-14.47-8.12
	c-3.93-2.34-7.72-4.93-11.51-7.49c-3.55-2.39-5.46-5.44-3.55-9.81c2.97-6.8,4.95-14.3,9.12-20.23
	c11.04-15.59,24.27-29.22,40.19-39.99c1.58-1.09,3.28-2.07,5-2.9c6.13-3.01,7.16-2.92,11.87,2.03c4.15,4.33,8.12,8.85,12,13.43
	C819.81,849.33,820.73,851.34,822.29,853.9"/>
<path class="st0" d="M443.98,185.78c-0.29-0.85-0.89-1.92-0.96-3.03c-0.45-6.22-0.74-12.44-1.18-18.67
	c-0.25-3.77,1.12-6.16,4.53-8.14c5.13-3.01,9.84-6.74,14.7-10.19c0.58-0.42,1.16-0.96,1.45-1.6c3.88-8.72,8.88-17.09,8.99-27.08
	c0.04-3.37,0.04-6.74,0.4-10.08c1.07-10.17,1.14-10.17-2.48-18.76c1.72-2.68,4.01-3.1,5.42-0.13c6.04,12.91,15.14,24.89,12.94,40.48
	c-0.31,2.14-0.13,4.33-0.13,6.51c0.02,7.43-1.63,14.07-7.03,19.78c-5.46,5.75-10.17,12.2-15.19,18.33c-5.2,6.36-12.69,9.26-19.65,13
	C445.47,186.36,444.89,186,443.98,185.78"/>
<path class="st30" d="M740.02,606.62c0.47,6.51-1.58,12.2-3.55,17.82c-4.53,13.09-3.17,25.89,3.3,37.63
	c5.75,10.46,15.52,16.79,26.9,20.5c3.12,1,6.18,2.25,9.79,3.59c-1,2.19-1.41,3.86-2.36,5.04c-5.64,6.82-13.4,10.79-20.92,15.05
	c-2.39,1.36-4.3,0.76-6.45-1.11c-10.62-9.23-18.65-19.98-21.75-33.99c-0.85-3.77-1.92-7.47-3.06-11.13
	c-3.41-11.15-1.74-22.33-0.49-33.54c0.62-5.87,2.12-11.26,5.6-16.08C730.7,605.35,732.26,604.8,740.02,606.62"/>
<path class="st21" d="M304.91,584.28c3.84,7,4.19,13.65,1.92,20.12c-3.7,10.57-9.64,19.89-17.87,27.63
	c-1.74,1.63-3.59,3.35-5.73,4.33c-6.54,3.08-13.16,5.93-19.83,8.63c-5.44,2.21-8.48,0.6-9.5-4.93c-1.49-8.27-2.85-16.59-4.28-24.89
	c-0.13-0.96-0.33-1.92-0.4-2.88c-0.56-6.6,0.83-7.83,7.38-8.54c6.42-0.69,13.16-1.14,19.05-3.43c8.01-3.12,15.34-7.9,22.95-12.04
	C300.63,587.15,302.52,585.82,304.91,584.28"/>
<path class="st35" d="M242.16,742.12c4.48,0.87,5.4,3.64,6.31,6.4c1.45,4.3,2.34,8.88,4.39,12.87c2.05,3.95,4.73,7.85,8.03,10.8
	c9.26,8.23,19.98,14.05,31.85,17.8c1.12,0.38,2.25,0.78,3.39,1.16c2.61,0.89,3.35,2.81,2.25,5.13c-1.12,2.36-2.65,4.53-4.06,6.76
	c-4.26,6.67-8.52,13.34-12.78,19.98c-0.91,1.4-2.01,2.72-2.9,4.13c-2.07,3.23-4.71,3.52-8.12,2.14
	c-9.14-3.75-15.63-10.42-19.85-18.98c-8.48-17.13-14.34-35.11-14.27-54.49c0.02-3.28,0.89-6.69,2.05-9.77
	C239.1,744.33,241.16,743.15,242.16,742.12"/>
<path class="st32" d="M698.61,387.41c1.78-1.96,2.54-3.32,3.7-3.95c11.46-6.22,16.55-17.78,23.08-27.99
	c1.92-2.99,2.34-7.45,2.14-11.17c-0.58-11.02-1.54-22.06-2.85-33.03c-0.78-6.47-1.2-6.42,5.06-8.81c2.72-1,5.42-2.03,8.16-2.97
	c0.87-0.31,1.85-0.31,3.06-0.49c0.45,0.56,1.14,1.07,1.25,1.67c2.12,11.55,6.02,22.73,5.69,34.77c-0.38,13.51-1.47,26.87-4.17,40.12
	c-1.38,6.82-1.85,13.85-3.5,20.59c-1.76,7.18-3.14,7.76-9.37,4.3c-8.27-4.62-16.97-7.92-26.12-10.3
	C702.96,389.67,701.34,388.64,698.61,387.41"/>
<path class="st41" d="M871.47,584.21c-1.87,2.86-2.97,4.95-4.46,6.71c-6.47,7.72-13.09,15.34-19.63,23.02
	c-4.53,5.33-6.67,5.38-11.53,0.29c-7.43-7.76-12.76-16.91-16.35-26.88c-4.26-11.8-6.8-24.07-7.07-36.69
	c-0.07-3.1,0.4-6.25,0.96-9.28c0.91-4.88,6.58-10.01,11.46-10.66c2.5-0.36,3.35,1.27,3.93,3.28c1.96,6.67,4.51,13.25,5.8,20.05
	c2.28,12.02,10.24,18.6,20.5,23.31C860.02,579.64,865.15,581.58,871.47,584.21"/>
<path class="st28" d="M735.38,512.64c-1.54,2.57-2.23,4.1-3.26,5.31c-3.84,4.33-7.78,8.54-11.69,12.78
	c-4.04,4.37-8.92,5.73-14.32,3.19c-3.86-1.83-7.96-3.79-10.97-6.71c-12.42-12.02-22.62-25.51-26.12-43.05
	c-2.5-12.6,0.71-21.55,11.04-27.95c0.76-0.47,1.72-0.58,3.08-1c0.56,1.81,1.27,3.3,1.43,4.86c0.18,2.12,0.09,4.31-0.04,6.47
	c-1.18,18.67,8.36,30.4,24.56,37.6c5.24,2.34,10.86,3.81,16.33,5.6C728.33,510.68,731.28,511.46,735.38,512.64"/>
<path class="st24" d="M86.3,707.53c-5.31-0.02-7.63-3.06-5.93-10.35c0.83-3.5,1.52-7.05,2.54-10.48c1.12-3.86,3.72-6.22,7.96-5.82
	c8.34,0.8,16.21-1.56,24.09-3.52c2.74-0.69,5.33-2.14,7.81-3.57c6.85-3.9,13.61-8.03,20.43-12.02c4.06-2.39,7.36-1.96,9.99,1.98
	c2.5,3.79,4.64,7.87,6.42,12.07c0.6,1.45,0.2,3.88-0.67,5.29c-1.23,1.96-3.19,3.57-5.09,5c-4.95,3.77-10.1,7.29-15.08,11.02
	c-7.14,5.29-14.97,8.63-23.89,9.14c-4.55,0.27-9.12,0.16-13.67,0.33C96.91,706.78,92.59,707.13,86.3,707.53"/>
<path class="st43" d="M547.26,185.02c3.61-4.95,6.51-9.34,9.84-13.38c4.06-4.93,5.29-10.66,2.97-16.15
	c-4.95-11.84-8.32-24.73-19.34-33.17c-2.88-2.19-2.61-4.5,0.67-7.09c5.09-3.97,10.44-7.54,16.28-11.71c2.12,2.5,4.24,4.44,5.69,6.78
	c5.53,9.01,10.84,18.16,16.19,27.28c0.62,1,1.27,2.1,1.56,3.23c3.52,14.45,5.71,29.11-1,43.02c-2.81,5.8-8.23,10.33-12.82,15.86
	C560.38,194.61,554.24,190.12,547.26,185.02"/>
<path class="st25" d="M45.39,832.85c-0.04-0.36-0.13-1.54-0.31-2.74c-0.6-3.75,1.25-6.29,4.55-7.16
	c14.39-3.77,26.52-12.4,39.9-18.29c5.71-2.52,11.58-3.12,17.55-3.3c5.58-0.16,8.72,2.63,10.3,8.25c1.2,4.39,2.25,8.83,3.26,13.29
	c1.18,5.17,0.89,6.53-3.97,8.45c-10.68,4.24-21.19,9.23-33.05,9.39c-4.1,0.07-8.16,0.36-12.27,0.62
	c-5.26,0.38-10.37,1.03-15.23,3.66c-6.8,3.72-10.91,0.91-11.02-7.03C45.08,836.57,45.26,835.15,45.39,832.85"/>
<path class="st44" d="M982.24,876.85c-0.85-0.27-2.48-0.65-4.01-1.27c-10.44-4.24-20.99-8.32-31.31-12.85
	c-10.68-4.71-15.77-14.32-19.94-24.47c-2.45-5.98-4.51-12.11-7.05-18.07c-1.2-2.74-0.71-4.73,1.54-6.24c3.57-2.39,7.18-4.77,11-6.69
	c3.23-1.61,5.44,0.07,6.69,3.3c5.4,13.78,16.46,22.1,28.5,29.46c7.2,4.42,15.48,4.93,23.46,6.2c5.55,0.89,6.45,2.19,4.42,7.36
	c-2.27,5.75-4.04,11.73-6.04,17.62C988.06,875.4,986.55,876.69,982.24,876.85"/>
<path class="st34" d="M604.61,206.74c-0.85-5.71-2.14-11.11-2.32-16.5c-0.42-11.06-4.3-21.1-7.96-31.27
	c-3.08-8.56-6.04-17.17-8.77-25.87c-0.4-1.38,0.38-4.1,1.52-4.84c5.38-3.5,11.06-6.56,17.08-10.01c4.71,5.4,8.7,11.17,10.82,18.2
	c2.34,7.81,4.88,15.52,7.34,23.28c0.22,0.69,0.62,1.36,0.67,2.05c0.65,11.73,1.34,23.46,1.63,35.19c0.04,1.76-1.52,4.44-3.06,5.17
	C616.65,204.47,611.7,207.21,604.61,206.74"/>
<path class="st26" d="M367.01,458.55c2.99,2.32,4.48,3.39,5.91,4.6c5.22,4.3,10.84,7.94,17.69,9.03c3.17,0.51,4.48,2.23,4.42,5.42
	c-0.13,8.83-0.11,17.69-0.25,26.54c-0.02,0.87-0.56,1.76-1.18,3.55c-7.25-2.07-13.65-5.73-17.22-11.75
	C369.97,485.13,364.46,473.69,367.01,458.55"/>
<path class="st33" d="M258.43,412.48c-8.05-4.28-15.41-8.21-23.73-12.62c1.65-2.12,2.9-3.97,4.39-5.62
	c6.36-7.05,10.24-14.99,9.92-24.78c-0.13-3.99-0.94-7.49-3.28-10.8c-3.5-4.86-6.74-9.93-10.01-14.97c-0.85-1.32-1.36-2.85-2.1-4.44
	c3.48-2.65,6.4-1.45,8.9,0.4c15.23,11.33,24.44,26.41,26.43,45.34C270.05,395.51,266.44,404.81,258.43,412.48"/>
<path class="st45" d="M492.29,464.35c-0.65,1-1.2,2.39-2.19,3.35c-3.64,3.48-7.38,6.87-11.15,10.19c-3.77,3.34-6.36,3.28-8.63-1.16
	c-3.19-6.18-5.89-12.65-8.3-19.16c-4.3-11.62-6.24-23.71-6.69-36.06c-0.31-8.81,3.3-13.98,11.37-15.99
	c2.92,3.75,1.78,8.23,1.63,12.36c-0.31,8.41,1.03,16.42,5.35,23.62c4.28,7.11,7.58,15.19,15.68,19.29c0.83,0.42,1.49,1.25,2.12,1.94
	C491.8,463.06,491.91,463.57,492.29,464.35"/>
</svg>
